<svg xmlns="http://www.w3.org/2000/svg" width="161" height="161" fill="none" viewBox="0 0 161 161">
  <g clip-path="url(#a)">
    <path fill="#000" stroke="#000" d="M32.284 47.092a2.892 2.892 0 0 0-4.072-.378 58.397 58.397 0 0 0-4.242 3.892c-1.13 1.145-1.073 2.945.018 4.08.713.742 1.623.87 2.376.759.73-.107 1.398-.447 1.723-.777a52.515 52.515 0 0 1 3.82-3.504 2.891 2.891 0 0 0 .377-4.072Z"/>
    <path fill="#000" stroke="#000" d="M106.679 18.691a1.896 1.896 0 0 0-1.634-1.96c-.192-.025-1.296-.16-2.961-.16-2.197 0-5.525.24-8.925 1.38-3.07 1.026-6.38 2.844-8.864 6.05-2.48 3.201-4.172 7.83-3.93 14.552.033.886.66 1.617 1.532 1.782.144.028 1.625.298 3.783.298 2.69 0 5.241-.4 7.586-1.183l.011-.004 13.402-20.755Zm0 0c-.295 5.999-1.841 10.853-4.556 14.466-2.217 2.949-5.188 5.065-8.845 6.29m13.401-20.756L93.278 39.446m0 0Zm14.79-4.774c2.616-4.281 4.086-9.553 4.388-15.698.194-3.957-2.727-7.459-6.654-7.977h-.001l-.052-.007c-.76-.109-7.962-1.134-15.343 1.793C86.3 5.297 79.487 1.08 78.644.579c-3.443-2.05-7.955-1.1-10.28 2.163a44.105 44.105 0 0 0-2.505 3.925 2.892 2.892 0 0 0 1.1 3.938l.242-.428-.241.428a2.892 2.892 0 0 0 3.939-1.1 38.202 38.202 0 0 1 2.175-3.407 1.984 1.984 0 0 1 2.612-.549c.26.155 6.12 3.702 9.564 9.861a22.977 22.977 0 0 0-4.985 4.421l.373.313-.373-.313c-3.517 4.2-5.405 9.553-5.669 15.91-2.554-2.323-5.4-5.827-6.53-10.532a18.316 18.316 0 0 1-.412-6.068 2.892 2.892 0 0 0-5.756-.563 24.08 24.08 0 0 0 .545 7.98 24.261 24.261 0 0 0 2.768 6.755 43.515 43.515 0 0 0-1.92.037c-1.747.07-4.206.26-7.127.74-5.84.958-13.54 3.076-21.076 7.713-1.351.832-1.818 2.616-.959 3.98.599.95 1.495 1.263 2.263 1.304.38.02.734-.025 1.021-.092.278-.064.527-.157.687-.254 8.195-4.995 17.636-7.635 27.3-7.635 1.528 0 3.071.067 4.588.198 3.304 3.216 8.082 6.83 15.674 7.11l.01.001h.008c3.088 0 6.053-.438 8.829-1.297 2.081.91 9.89 4.533 14.452 9.479l.325-.3-.325.3c.307.332.908.722 1.63.865.75.147 1.642.027 2.45-.695 1.202-1.073 1.249-2.923.171-4.092l-.367.34.367-.34c-3.503-3.798-8.387-6.814-12.015-8.74a23.096 23.096 0 0 0 2.718-2.164 52.144 52.144 0 0 1 40.762 33.5c3.202 8.704 3.241 18.938 3.241 19.367 0 34.75-30.213 63.078-67.42 63.078-37.077 0-67.289-28.23-67.416-62.85v-.036l.002-.101a59.04 59.04 0 0 1 .058-1.767c.056-1.184.166-2.847.381-4.787.431-3.886 1.28-8.861 2.945-13.33l-.464-.172.464.173a51.249 51.249 0 0 1 6.504-12.137 2.891 2.891 0 1 0-4.686-3.39 57.046 57.046 0 0 0-7.237 13.507c-3.712 9.956-3.75 21.55-3.75 22.05v.003c.067 18.381 7.738 35.64 21.589 48.594 13.81 12.917 32.141 20.027 51.61 20.027 19.514 0 37.876-7.137 51.696-20.105 13.865-13.008 21.507-30.324 21.507-48.757h-.5l-45.133-57.966Z"/>
    <path fill="#000" stroke="#000" d="M130.961 124.142a2.892 2.892 0 0 0-4.067.434 55.655 55.655 0 0 1-5.592 5.965 2.891 2.891 0 1 0 3.918 4.254 61.375 61.375 0 0 0 6.175-6.587 2.891 2.891 0 0 0-.434-4.066Zm-43.715 21.647c9.187-.991 18.095-4.07 25.76-8.904a2.891 2.891 0 1 1 3.085 4.892c-8.41 5.303-18.17 8.678-28.224 9.762l-.62-5.75Zm0 0a2.892 2.892 0 0 0-2.564 3.185m2.564-3.185-2.564 3.185m0 0a2.892 2.892 0 0 0 2.872 2.582m-2.873-2.582 2.873 2.582m0 0c.102 0 .207-.005.312-.017l-.312.017Z"/>
  </g>
  <defs>
    <clipPath id="a">
      <path fill="#fff" d="M0 0h161v161H0z"/>
    </clipPath>
  </defs>
</svg>
