<svg xmlns="http://www.w3.org/2000/svg" width="176" height="176" fill="none" viewBox="0 0 176 176">
  <path fill="#000" d="M88 176c-48.598 0-88-39.402-88-88S39.402 0 88 0s88 39.402 88 88-39.402 88-88 88Zm0-151.54c-35.056 0-63.54 28.484-63.54 63.54S52.944 151.54 88 151.54s63.54-28.484 63.54-63.54S123.056 24.46 88 24.46Z"/>
  <path fill="#000" d="M37.032 84.516c.79.108 2.119.287 2.802 1.94.574 1.94-.432 4.058-2.228 4.74-1.544.575-3.089-.143-3.77-1.544-.432-.97-.145-2.083.43-2.945.108-.934 1.473-2.37 2.766-2.191Zm6.286-5.603c-.683 1.257-1.94 2.37-3.34 2.801-1.545.575-3.09-.287-3.629-1.688-.574-1.544.288-3.089 1.689-3.628a.31.31 0 0 0 .287-.287c.575-.97 2.119-1.94 3.915-.97 1.329.575 1.76 2.37 1.078 3.772Zm3.484-12.141c-1.401.683-3.09 0-3.772-1.4-.682-1.401 0-3.09 1.401-3.772 1.4-.575 2.658-1.544 3.628-2.658.575-.682 2.37-1.652 3.915-.287 1.257.97 1.257 2.801.287 4.059-1.4 1.688-3.376 3.088-5.46 4.058ZM63 47.915l-3.914 2.227c-1.401.826-3.09.287-3.915-.97-.827-1.4-.288-3.089.97-3.915l3.915-2.227c1.652-1.005 3.34.144 3.915.97.862 1.4.43 3.233-.97 3.915Zm13.973-2.227-2.802.287c-1.544.144-2.945-.97-3.196-2.514-.144-1.544.97-2.945 2.514-3.197l2.802-.287c1.508-.18 2.945 1.114 3.089 2.514.395 1.653-.755 3.053-2.407 3.197Zm22.341-4.598c-2.658.144-5.46-.143-8.117-.682-1.545-.287-2.515-1.832-2.227-3.34.287-1.401 1.832-2.479 3.34-2.227 2.227.43 4.454.682 6.717.575 1.544 0 2.945 1.113 2.945 2.801.288 1.473-.97 2.73-2.658 2.874Zm17.6 9.196c-2.514-1.257-5.028-2.658-7.255-4.346-1.257-.97-1.545-2.658-.683-4.06 1.545-1.939 3.484-1.113 4.059-.682 1.94 1.401 4.203 2.658 6.43 3.772 1.4.682 2.083 2.37 1.4 3.771-.754 1.688-2.55 2.263-3.951 1.545Zm11.853 9.914c-1.4.825-3.089.286-3.915-1.114l-2.227-4.06c-.826-1.4-.287-3.088 1.114-3.914 1.796-1.042 3.34.143 3.915 1.113l2.227 4.06c.862 1.4.287 3.088-1.114 3.914Zm7.292 14.259a2.805 2.805 0 0 1-2.802-2.802v-3.771a2.805 2.805 0 0 1 2.802-2.802 2.805 2.805 0 0 1 2.801 2.802v3.771c.108 1.545-1.149 2.802-2.801 2.802Zm1.257 4.166c1.544.288 2.514 1.832 2.227 3.34l-.97 4.347c-.287 1.544-1.832 2.514-3.34 2.227-1.545-.288-2.515-1.832-2.227-3.34l.97-4.347c.251-1.365 1.58-2.406 3.34-2.227Zm-9.375 4.203c-1.544.143-2.945-1.114-3.089-2.658l-.287-5.855c-.144-1.688 1.113-3.089 2.658-3.089 1.293-.144 3.017 1.006 2.945 2.658l.288 5.855c.287 1.544-.97 2.945-2.515 3.089ZM120.398 71.8v3.09a2.805 2.805 0 0 1-2.801 2.801 2.805 2.805 0 0 1-2.802-2.801V71.8a2.805 2.805 0 0 1 2.802-2.8 2.805 2.805 0 0 1 2.801 2.8Zm-7.543-5.71c-1.544-.144-2.801-1.545-2.657-3.09l.287-3.77c.144-1.545 1.688-2.91 3.089-2.659 1.544.144 2.801 1.545 2.658 3.09l-.288 3.77a2.883 2.883 0 0 1-3.089 2.659Zm-7.83-6.034c-.682 1.4-2.514 1.94-3.915 1.113-1.4-.682-1.94-2.514-1.113-3.915.574-1.114.97-2.37 1.257-3.772.287-1.4 1.76-2.765 3.197-2.37 1.544.287 2.658 1.688 2.37 3.197-.251 2.119-.79 4.094-1.796 5.747Zm-16.738-.539v-3.772a2.805 2.805 0 0 1 2.802-2.801 2.805 2.805 0 0 1 2.802 2.801v3.772a2.805 2.805 0 0 1-2.802 2.801 2.805 2.805 0 0 1-2.802-2.801Zm-8.405 5.172c-1.544.287-3.089-.826-3.196-2.37l-.431-2.228c-.288-1.544.826-3.089 2.37-3.196 1.617-.216 3.09.97 3.197 2.514l.287 2.083c.431 1.509-.682 2.91-2.227 3.197Zm-12.427 8.8a2.805 2.805 0 0 1-2.802-2.802v-4.346a2.805 2.805 0 0 1 2.802-2.801 2.805 2.805 0 0 1 2.801 2.801v4.346a2.805 2.805 0 0 1-2.801 2.802Zm-11.171 1.257.288 1.545c.287 1.544-.683 3.089-2.228 3.34-1.544.287-3.089-.682-3.34-2.227l-.287-1.544c-.288-1.545.682-3.09 2.227-3.34 1.796-.252 3.089.825 3.34 2.226Zm-9.195 14.368a2.907 2.907 0 0 1 2.658-1.832c2.335 0 3.197 2.227 2.801 3.771 0 .144 0 .287.144.431 1.257.826 1.688 2.658.683 4.059-.827 1.257-2.658 1.688-4.06.682-2.226-1.508-3.088-4.454-2.226-7.111Zm.539 15.516a2.805 2.805 0 0 1-2.802 2.802 2.805 2.805 0 0 1-2.801-2.802v-3.089a2.805 2.805 0 0 1 2.801-2.801 2.805 2.805 0 0 1 2.802 2.801v3.089Zm-3.915 6.43s2.694-.216 2.945 2.658c.036.431.144.682.431.969 1.113 1.114.97 2.946-.144 4.059-1.113 1.114-2.945.97-4.059-.144-1.113-1.257-1.831-2.945-1.94-4.597 0-1.437 1.258-2.838 2.767-2.945Zm7.974 10.596c1.796-.216 3.089.969 3.34 2.37 0 .287.287.431.431.575 1.4.682 1.832 2.514 1.113 3.915-.718 1.401-2.514 1.832-3.915 1.113-1.688-.969-2.945-2.658-3.196-4.453-.288-1.689.682-3.233 2.227-3.52Zm4.453-4.885c-1.4.826-3.089.431-3.915-.97-.682-1.257-.97-2.802-.574-4.203.43-1.257 2.083-2.622 3.627-1.939 1.401.431 2.371 1.832 1.94 3.34.754 1.257.18 2.945-1.078 3.772ZM61.169 96.8c.287 0 1.94.431 1.94.431 1.544.431 2.514 1.94 2.083 3.484-.431 1.545-1.94 2.514-3.484 2.083l-1.257-.287c-1.545-.431-2.515-1.94-2.084-3.484.431-1.257 1.545-2.227 2.802-2.227Zm4.346-8.118c-.144 0-.144 0 0 0-1.688.288-3.089-.826-3.34-2.37-.288-1.545 1.257-3.7 3.34-3.34.97.143 1.832.287 2.658.682 1.4.682 1.94 2.37 1.114 3.771-.827 1.401-2.371 1.976-3.772 1.257Zm6.861-15.337c1.975-.754 3.34.288 3.771 1.257l.97 1.832c.682 1.401.143 3.09-1.257 3.772-1.401.682-3.09.143-3.772-1.257l-.97-1.832a2.774 2.774 0 0 1 1.258-3.772Zm16.594 2.91c-.97 1.257-2.802 1.544-4.059.574l-3.34-2.514c-1.258-.97-1.545-2.802-.575-4.059.575-.682 2.155-1.76 4.059-.574l3.34 2.514c1.15 1.15 1.437 2.802.575 4.059Zm10.775-5.568c.97.826 1.688 1.94 2.227 3.197.575 1.4 0 3.09-1.544 3.772-1.401.574-3.09 0-3.772-1.545a2.282 2.282 0 0 0-.826-1.114c-1.113-1.113-1.257-2.945-.144-4.058.54-.683 2.084-1.652 4.06-.252Zm9.483 9.339c2.047-1.006 3.484.144 4.059.97l.969 1.544c.826 1.401.431 3.09-.969 3.915-1.401.827-3.089.431-3.916-.97l-.969-1.544c-1.006-1.4-.575-3.197.826-3.915Zm26.256 13.146v3.34a2.805 2.805 0 0 1-2.802 2.802 2.805 2.805 0 0 1-2.801-2.801v-3.34a2.805 2.805 0 0 1 2.801-2.802 2.805 2.805 0 0 1 2.802 2.801Zm-11.171-.969c-.143 1.939-1.113 3.77-2.801 4.74-1.401.827-3.089.432-3.915-.825-.826-1.401-.431-3.09.826-3.915.144 0 .144-.144.144-.288.071-1.58 1.831-2.981 2.945-2.658 1.688 0 2.945 1.257 2.801 2.945Zm5.604 20.221c1.903-.538 3.196.575 3.628 1.832l.287.97c.575 1.545-.287 3.089-1.832 3.628-1.544.539-3.089-.287-3.628-1.832l-.287-.97c-.575-1.365.287-3.053 1.832-3.628Zm-13.721 13.829 2.083-1.544c1.652-1.222 3.484-.144 4.059.574.97 1.257.682 3.089-.682 4.059l-2.084 1.545c-1.257.969-3.089.682-4.059-.683-.826-1.293-.574-3.089.683-3.951Zm-10.74 7.687 3.089-2.084c1.868-1.221 3.341-.143 3.915.683.827 1.257.575 3.089-.682 3.915l-3.089 2.083c-1.257.826-3.089.575-3.915-.682-1.006-1.257-.718-3.053.682-3.915Zm-16.056 0c.97.143 2.084 0 3.09-.144 1.544-.575 3.197.682 3.484 2.083.43 1.545-.575 3.089-2.083 3.484-1.689.431-3.34.575-5.029.288-1.544-.144-2.658-1.545-2.514-3.197.108-1.545 1.508-2.658 3.053-2.514Zm-17.455-.97c.43-.288 1.544-.934 2.945-.288 1.4.683 1.94 2.371 1.257 3.916-.97 1.939-3.484 2.801-5.46 1.831-1.4-.682-1.94-2.37-1.257-3.771.539-1.006 1.545-1.688 2.514-1.688Zm-2.371-11.853c1.4.826 1.688 2.658.826 3.915-.287.431-.431 1.113-.431 1.688 0 1.544-1.4 2.945-2.945 2.802-1.545 0-2.802-1.401-2.802-2.946 0-1.688.575-3.196 1.4-4.597.576-.862 2.192-1.868 3.952-.862Zm6.142-10.919c.144 1.544-.97 2.945-2.514 3.089-.431 0-.826.143-1.257.431-1.401.826-3.09.431-3.916-.827-.826-1.4-.43-3.089.827-3.915a8.871 8.871 0 0 1 3.77-1.257c1.438-.287 2.946 1.078 3.09 2.479Zm4.741 11.745h1.832a2.805 2.805 0 0 1 2.802 2.801 2.805 2.805 0 0 1-2.802 2.802h-1.832a2.805 2.805 0 0 1-2.801-2.802c0-1.544 1.113-2.801 2.801-2.801Zm-6.142-20.258c-1.544-.287-2.658-1.832-2.37-3.34.43-2.371 2.226-4.347 4.597-4.885 1.652-.575 3.197.682 3.484 2.083.431 1.544-.575 3.089-2.083 3.484a.31.31 0 0 0-.287.287c-.288 1.545-1.796 2.515-3.34 2.371Zm9.231 6.429c.287-1.544 1.832-2.514 3.34-2.227h.432c1.94-.79 3.34.288 3.915 1.401.682 1.401.143 3.089-1.401 3.772-1.257.574-2.658.682-4.059.431-1.688-.324-2.658-1.832-2.227-3.377Zm.395-18.857-1.832.287c-1.544.288-3.089-.826-3.34-2.37-.287-1.545.826-3.09 2.37-3.34l1.833-.288c1.4-.287 3.088.97 3.196 2.37.431 1.51-.682 3.054-2.227 3.341Zm19.576.683c-.575 1.4-2.227 2.083-3.772 1.544l-2.227-.826c-1.4-.575-2.083-2.227-1.544-3.772.43-1.113 2.12-2.37 3.771-1.544l2.227.826c1.401.718 2.084 2.407 1.545 3.772Zm-8.262 4.202a2.805 2.805 0 0 1 2.802 2.802 2.805 2.805 0 0 1-2.802 2.801h-1.257a2.805 2.805 0 0 1-2.801-2.801 2.805 2.805 0 0 1 2.801-2.802h1.257Zm-2.083 29.345c-.575-1.4.144-3.089 1.545-3.771l1.544-.575c1.724-.79 3.34.431 3.772 1.545.574 1.401-.144 3.089-1.545 3.771l-1.544.575c-1.401.539-3.09-.144-3.772-1.545Zm16.199-1.257c-1.257-.826-1.688-2.658-.682-4.059l2.227-3.089c.575-.826 2.263-1.903 4.059-.682 1.257.826 1.688 2.658.682 4.059l-2.227 3.089c-1.005 1.221-2.801 1.508-4.059.682Zm-9.482-12.32c-.97-1.257-.682-3.089.575-4.059l1.257-.969c.575-.431 2.263-1.222 3.915.574.97 1.257.682 3.089-.575 4.059l-1.257.826c-1.293.97-2.945.826-3.915-.431Zm14.08-7.65c-1.257.826-3.089.431-3.915-.827-1.545-.287-2.514-1.688-2.227-3.196.287-1.401 1.688-2.586 3.197-2.37 1.544.286 3.089 1.256 3.915 2.657.862 1.078.431 2.874-.97 3.736Zm6.286 5.998c-.288-1.545.826-3.089 2.37-3.34l1.832-.288c1.545-.251 3.089.97 3.197 2.371.287 1.544-.826 3.089-2.371 3.34l-1.832.288c-1.364.287-2.909-.827-3.196-2.371ZM132 103.517c.611-.97 3.34-2.012 5.46-.144.969 1.257.826 3.089-.431 4.059-1.258 1.113-3.197 1.113-4.454.144-1.293-1.006-1.545-2.802-.575-4.059Zm-37.283-57.29a2.805 2.805 0 0 1-2.802 2.802h-3.089a2.805 2.805 0 0 1-2.801-2.802 2.805 2.805 0 0 1 2.801-2.802h3.09c1.544-.107 2.8 1.15 2.8 2.802ZM64.114 58.655c-1.544.143-2.945-.97-3.089-2.515-.143-1.544.97-2.945 2.515-3.089 0 0 .143 0 .143-.143.575-.683 2.3-1.832 4.06-.575 1.256.97 1.544 2.802.574 4.059-.97 1.15-2.514 2.155-4.203 2.263Z"/>
</svg>
