<svg xmlns="http://www.w3.org/2000/svg" width="137" height="178" fill="none" viewBox="0 0 137 178">
  <path fill="#000" d="M137 76.502c0-15.76-12.528-28.289-28.289-28.289-7.679 0-14.953 3.233-20.207 8.487-4.04-4.446-9.699-7.275-15.76-8.083 1.616-13.74 13.74-24.652 27.884-24.652 2.425 0 4.041-1.617 4.041-4.041 0-2.425-1.616-4.041-4.041-4.041-9.295 0-18.186 3.637-25.056 10.103-1.212-6.466-4.041-12.124-8.89-16.57C59.811 2.547 49.707-.686 39.604.123c-2.02 0-3.233 1.616-3.637 3.637-1.213 10.507 2.424 20.206 9.295 27.077 2.02 2.02 4.04 3.233 6.062 4.85 2.02 1.212 4.445.404 5.658-1.213 1.212-2.02.404-4.446-1.213-5.658-1.617-.808-3.233-2.02-4.445-3.637C46.475 20.732 44.05 14.67 44.05 7.8c6.87 0 12.932 2.425 17.377 6.87 5.254 5.254 7.678 12.529 6.87 21.015 0 .404 0 .808-.404 1.213 0 .404-.808 2.02-1.213 2.424-1.616 4.042-2.424 8.487-2.424 12.932 0 2.425 1.616 4.042 4.04 4.042 11.317 0 20.207 8.89 20.207 20.206 0 11.316-8.89 20.207-20.206 20.207-11.316 0-20.207-8.891-20.207-20.207 0-5.658 2.425-11.316 6.87-14.953 1.617-1.616 1.617-4.04.405-5.658-1.617-1.616-4.041-1.616-5.658-.404L48.496 56.7c-5.254-5.254-12.528-8.487-20.207-8.487C12.53 48.213 0 60.741 0 76.503c0 15.76 12.528 28.288 28.29 28.288 3.232 0 6.465-.404 9.294-1.616 2.02-.809 3.233-3.233 2.425-5.254-.808-2.02-3.233-3.233-5.254-2.425-2.424.808-4.445 1.213-6.87 1.213-11.315 0-20.206-8.891-20.206-20.207s8.89-20.206 20.206-20.206c6.062 0 11.72 2.828 15.357 7.274-2.02 4.041-3.233 8.486-3.233 12.932 0 14.952 11.72 27.48 26.672 28.289 1.213 2.425 1.617 5.254 1.617 8.083 0 11.315-8.89 20.206-20.206 20.206-10.103 0-18.186-7.274-19.802-16.973-.405-2.021-2.425-3.638-4.85-3.233-2.02.404-3.637 2.424-3.233 4.849 2.02 11.316 10.507 20.207 21.419 22.632-1.213 2.829-1.617 5.657-1.617 8.89 0 15.762 12.528 28.29 28.29 28.29 13.74 0 25.46-10.104 27.884-23.44.404-2.02-1.212-4.445-3.233-4.85-2.02-.404-4.445 1.213-4.85 3.233-1.616 9.699-9.698 16.974-19.802 16.974-11.315 0-20.206-8.891-20.206-20.207 0-2.828.808-5.657 1.616-8.082 14.953-.808 26.673-13.336 26.673-28.289 0-3.233-.404-6.062-1.617-8.891 12.528-2.829 21.823-14.145 21.823-27.48 0-4.85-1.212-9.296-3.233-12.933 3.637-4.445 9.295-7.274 15.357-7.274 11.316 0 20.206 8.89 20.206 20.206 0 11.316-8.89 20.207-20.206 20.207-2.425 0-4.446-.404-6.87-1.212-2.021-.809-4.446.404-5.254 2.424-.808 2.021.404 4.446 2.425 5.254 2.425.808 4.85 1.212 7.678 1.617 1.213 2.424 1.617 5.253 1.617 8.082 0 11.316-8.89 20.207-20.207 20.207-2.424 0-4.445-.404-6.87-1.213-2.02-.808-4.445.405-5.253 2.425-.809 2.021.404 4.446 2.424 5.254 3.234 1.212 6.063 1.616 9.296 1.616 15.761 0 28.289-12.528 28.289-28.289 0-3.233-.405-6.062-1.617-8.89C127.705 101.154 137 89.838 137 76.502Z"/>
</svg>
