<svg xmlns="http://www.w3.org/2000/svg" width="169" height="169" fill="none" viewBox="0 0 169 169">
  <g clip-path="url(#a)">
    <path fill="#000" stroke="#000" stroke-width="1.739" d="M152.916 84.913h-15.19c5.824-17.173 5.593-34.947-1.406-49.68 2.403-7.14.9-14.995-4.456-20.35-5.281-5.282-13.108-6.871-20.344-4.446-7.685-3.64-16.41-5.542-25.592-5.542-20.996 0-42.677 9.638-59.484 26.445C1.657 56.127-6.567 90.72 5.454 116.243c-2.548 7.134-1.24 15.2 4.304 20.744 5.46 5.46 13.531 6.89 20.76 4.305 7.64 3.582 16.299 5.454 25.406 5.454a69.96 69.96 0 0 0 6.247-.285c11.351 10.919 26.765 17.644 43.721 17.644 34.904 0 63.109-28.383 63.108-63.108 0-8.89-7.193-16.085-16.084-16.085ZM30.49 128.727c-3.992 3.504-9.644 3.763-12.938.467-3.295-3.294-3.038-8.946.467-12.938-13.47-21.114-7.19-53.714 16.218-77.124 15.238-15.237 34.367-23.216 51.69-23.216 9.3 0 18.08 2.3 25.454 7.011 3.976-3.3 9.464-3.478 12.69-.252 3.226 3.226 3.048 8.714-.252 12.69 8.682 13.59 9.172 31.947 2.175 49.548H58.868c-8.89 0-16.085 7.195-16.084 16.085a62.735 62.735 0 0 0 10.393 34.652c-8.268-.411-16.047-2.688-22.687-6.923Zm23.316-27.73a5.063 5.063 0 0 1 5.062-5.062h32.48l-30.751 30.752a51.757 51.757 0 0 1-6.791-25.69Zm13.32 34.747 33.256-33.256v50.304c-13.157-1.39-24.867-7.699-33.256-17.048Zm44.277 17.048v-50.303l33.255 33.256c-8.651 9.641-20.465 15.696-33.255 17.047Zm39.785-26.104-30.753-30.753h32.481a5.062 5.062 0 0 1 5.062 5.062 51.77 51.77 0 0 1-6.79 25.691Z"/>
  </g>
  <defs>
    <clipPath id="a">
      <path fill="#fff" d="M0 0h169v169H0z"/>
    </clipPath>
  </defs>
</svg>
