<svg xmlns="http://www.w3.org/2000/svg" width="121" height="148" fill="none" viewBox="0 0 121 148">
  <path fill="#000" fill-rule="evenodd" d="M68.205 27.395c2.627-8.091 10.223-13.94 19.184-13.94V0C77.386 0 68.404 4.373 62.247 11.312 57.373 4.465 49.374 0 40.333 0H26.89v13.454c0 7.488 3.055 14.26 7.986 19.138C14.272 42.247 0 63.182 0 87.454 0 120.893 27.087 148 60.5 148S121 120.893 121 87.454c0-30.826-23.02-56.271-52.795-60.059ZM60.5 40.364c-25.988 0-47.056 21.083-47.056 47.09 0 26.008 21.068 47.091 47.056 47.091 25.988 0 47.056-21.083 47.056-47.09 0-26.008-21.068-47.091-47.056-47.091Zm20.167 47.09c0-11.145-9.03-20.181-20.167-20.181V53.818c18.563 0 33.611 15.06 33.611 33.636H80.667ZM53.777 26.91c-7.424 0-13.444-6.024-13.444-13.454 7.425 0 13.445 6.023 13.445 13.454Z" clip-rule="evenodd"/>
</svg>
