<svg xmlns="http://www.w3.org/2000/svg" width="272" height="387" fill="none" viewBox="0 0 272 387">
  <path fill="#fff" d="m13 169.382 118.374 187.453 83.247-100.153 44.51-97.485-19.488-85.117L188.395 12h-63.758L58.473 30.43 24.308 74.08 13 128.157v41.225Z"/>
  <path fill="#272727" d="m136.146 386.603-10.265-12.804C100.91 343.044.128 204.217.128 136.861c-1.531-34.72 10.684-68.631 33.96-94.273C57.362 16.946 89.79 1.673 124.238.129c3.798-.172 7.605-.172 11.421 0 34.447-1.543 68.092 10.769 93.533 34.228 25.441 23.46 40.594 56.144 42.125 90.864.171 3.88.171 7.76 0 11.64 0 57.243-68.497 158.071-120.055 228.945l-15.116 20.797Zm-.487-360.969a103.885 103.885 0 0 0-43.193 6.763 104.548 104.548 0 0 0-36.682 23.958 105.548 105.548 0 0 0-23.77 36.972 106.217 106.217 0 0 0-6.71 43.534c0 47.387 70.807 156.183 109.995 207.812 32.08-44.232 110.739-154.915 110.739-207.812a106.21 106.21 0 0 0-6.71-43.534 105.533 105.533 0 0 0-23.77-36.972 104.54 104.54 0 0 0-36.682-23.958 104 104 0 0 0-43.217-6.763Z"/>
  <path fill="#272727" d="M138.991 68.6c13.867 0 25 3.8 33.4 11.4 8.534 7.467 12.8 17.8 12.8 31 0 13.067-4.2 23.067-12.6 30-8.4 6.8-19.533 10.2-33.4 10.2l-.8 15.4h-24.6l-1-34h9c11.6 0 20.534-1.533 26.8-4.6 6.267-3.067 9.4-8.667 9.4-16.8 0-5.867-1.733-10.533-5.2-14-3.333-3.467-7.933-5.2-13.8-5.2-6.133 0-10.933 1.667-14.4 5-3.333 3.333-5 7.933-5 13.8h-26.4c-.133-8.133 1.6-15.4 5.2-21.8s8.867-11.4 15.8-15c7.067-3.6 15.334-5.4 24.8-5.4Zm-13 145.8c-5.066 0-9.266-1.533-12.6-4.6-3.2-3.2-4.8-7.133-4.8-11.8 0-4.667 1.6-8.533 4.8-11.6 3.334-3.2 7.534-4.8 12.6-4.8 4.934 0 9 1.6 12.2 4.8 3.2 3.067 4.8 6.933 4.8 11.6s-1.6 8.6-4.8 11.8c-3.2 3.067-7.266 4.6-12.2 4.6Z"/>
</svg>
