<svg xmlns="http://www.w3.org/2000/svg" width="180" height="175" fill="none" viewBox="0 0 180 175">
  <g clip-path="url(#a)">
    <path fill="#000" d="M139.623 101.694c-2.704-4.168-4.71-8.966-5.96-14.26-3.902-16.53-12.007-38.385-23.753-50.91 11.455-6.177 16.873-18.904 13.967-30.774-.539-2.204-2.25-3.96-4.485-4.604-14.368-4.137-29.925 3.22-35.068 17.367l-6.937-6.744c-2.543-2.472-6.665-2.472-9.209 0a6.207 6.207 0 0 0 0 8.953l9.59 9.323C61.343 40.057 50.686 68.81 46.318 87.178c-1.305 5.486-3.33 10.37-6.02 14.518C19.972 133.024 52.67 175 89.96 175c31.527 0 55.981-28.217 55.981-52.491 0-7.246-2.186-14.444-6.319-20.815Zm-28.001-89.027c-.264 7.954-6.812 14.438-15.094 14.652a27.446 27.446 0 0 0-.816-.207c.389-8.188 7.349-14.616 15.91-14.445ZM89.96 162.339c-23.654 0-42.959-21.908-42.959-39.83 0-12.783 7.575-13.853 12.005-32.48 6.687-28.116 21.676-54.677 33.754-50.426 10.267 3.603 22.131 24.91 28.211 50.662 4.289 18.169 11.948 19.442 11.948 32.244 0 17.935-19.317 39.83-42.959 39.83Z"/>
    <path fill="#000" d="M76.75 138.565c-3.891-2.91-7.145-6.893-8.927-10.929-1.418-3.213-5.246-4.7-8.551-3.32-3.305 1.379-4.834 5.101-3.415 8.314 2.67 6.049 7.272 11.721 12.956 15.97 2.85 2.132 6.939 1.612 9.13-1.159 2.192-2.77 1.658-6.745-1.192-8.876Z"/>
  </g>
  <defs>
    <clipPath id="a">
      <path fill="#fff" d="M0 0h180v175H0z"/>
    </clipPath>
  </defs>
</svg>
