<svg xmlns="http://www.w3.org/2000/svg" width="160" height="167" fill="none" viewBox="0 0 160 167">
  <path fill="#000" d="M52.793 69.936c-8.766 0 0 13.407 0 13.407s8.765-13.407 0-13.407Zm54.413 0c-8.765 0 0 13.407 0 13.407s8.766-13.407 0-13.407Zm-27.206 0c-8.766 0 0 13.407 0 13.407s8.765-13.407 0-13.407Zm0 58.698c-8.766 0 0 13.407 0 13.407s8.765-13.407 0-13.407Zm13.603-29.349c-8.765 0 0 13.407 0 13.407s8.766-13.407 0-13.407Zm-27.207 0c-8.765 0 0 13.407 0 13.407s8.766-13.407 0-13.407Z"/>
  <path fill="#000" d="M131.659 54.172c-6.868-6.94-16.961-8.47-27.02-8.375 3.094-2.682 5.774-5.994 7.991-9.922 5.358-9.49 6.808-20.162 7.587-25.895.086-.635.163-1.204.236-1.696L121.69 0l-7.73 2.282c-.459.136-.99.284-1.584.45-5.358 1.501-15.332 4.294-23.71 10.992-3.572 2.856-6.464 6.14-8.666 9.8-2.202-3.66-5.094-6.944-8.666-9.8-8.378-6.699-18.352-9.491-23.71-10.991-.594-.166-1.125-.315-1.584-.45L38.31 0l1.236 8.284c.073.492.15 1.06.236 1.696.78 5.733 2.23 16.405 7.588 25.895 2.217 3.927 4.896 7.24 7.99 9.922-10.059-.096-20.151 1.436-27.02 8.375-5.708 5.767-8.333 14.471-7.8 25.87C22.422 120.255 48.804 167 80 167s57.578-46.745 59.46-86.958c.532-11.4-2.092-20.103-7.801-25.87Zm-36.726-31.91c4.415-3.53 9.657-5.793 14.063-7.301-.903 4.747-2.42 10.451-5.245 15.454-4.214 7.465-10.321 11.64-18.588 12.673 0-.403-.006-.803-.017-1.201.266-8.137 3.496-14.594 9.787-19.625Zm-43.93-7.301c4.406 1.508 9.648 3.77 14.064 7.301 6.29 5.03 9.52 11.488 9.786 19.625-.01.398-.017.798-.017 1.2-8.267-1.033-14.374-5.208-18.588-12.672-2.825-5.003-4.342-10.707-5.244-15.454Zm78.163 64.557c-.828 17.716-7.05 37.359-16.643 52.545-9.707 15.368-21.561 24.181-32.524 24.181-10.963 0-22.817-8.813-32.524-24.181-9.593-15.186-15.814-34.829-16.643-52.545-.388-8.286 1.14-14.05 4.674-17.618 6.717-6.786 20.538-5.61 32.733-4.57 4.21.358 8.186.697 11.76.697s7.55-.339 11.76-.697c12.195-1.039 26.015-2.216 32.733 4.57 3.533 3.569 5.062 9.332 4.674 17.618Z"/>
  <path fill="#000" d="M107.206 69.936c-8.765 0 0 13.407 0 13.407s8.766-13.407 0-13.407Zm-54.413 0c-8.766 0 0 13.407 0 13.407s8.765-13.407 0-13.407Zm27.207 0c-8.766 0 0 13.407 0 13.407s8.765-13.407 0-13.407Zm0 58.698c-8.766 0 0 13.407 0 13.407s8.765-13.407 0-13.407ZM66.396 99.285c-8.765 0 0 13.407 0 13.407s8.766-13.407 0-13.407Zm27.207 0c-8.766 0 0 13.407 0 13.407s8.766-13.407 0-13.407Z"/>
</svg>
