<?xml version="1.0" standalone="no"?>
<!DOCTYPE svg PUBLIC "-//W3C//DTD SVG 20010904//EN"
 "http://www.w3.org/TR/2001/REC-SVG-20010904/DTD/svg10.dtd">
<svg version="1.0" xmlns="http://www.w3.org/2000/svg"
 width="953.000000pt" height="953.000000pt" viewBox="0 0 953.000000 953.000000"
 preserveAspectRatio="xMidYMid meet">
<metadata>
Created by potrace 1.14, written by Peter Selinger 2001-2017
</metadata>
<g transform="translate(0.000000,953.000000) scale(0.100000,-0.100000)"
fill="#000000" stroke="none">
<path d="M4109 9526 c-2 -2 -36 -6 -74 -10 -39 -4 -81 -8 -95 -10 -14 -2 -47
-8 -75 -12 -27 -4 -57 -9 -65 -10 -8 -2 -31 -6 -50 -9 -19 -4 -46 -9 -60 -11
-14 -3 -61 -14 -105 -25 -44 -11 -91 -23 -105 -26 -14 -2 -34 -8 -45 -13 -11
-5 -51 -18 -90 -31 -147 -46 -355 -139 -510 -228 -183 -106 -426 -312 -555
-470 -19 -24 -39 -49 -45 -55 -70 -81 -291 -456 -269 -456 3 0 0 -10 -8 -22
-14 -23 -65 -157 -68 -183 0 -3 -8 -24 -16 -47 -15 -42 -59 -225 -68 -283 -5
-32 -15 -106 -23 -170 -12 -93 -5 -610 7 -610 1 0 3 -13 5 -30 5 -53 36 -186
56 -244 25 -70 25 -69 100 -226 35 -71 63 -132 64 -135 1 -3 17 -39 37 -80 19
-41 47 -100 61 -130 34 -74 117 -270 117 -276 0 -3 9 -24 19 -48 24 -51 62
-147 65 -161 1 -5 12 -32 24 -59 12 -27 22 -51 22 -55 0 -5 61 -173 77 -211 3
-8 7 -17 7 -20 1 -3 6 -18 13 -35 30 -80 87 -238 148 -410 37 -104 70 -199 75
-210 11 -28 23 -58 26 -70 1 -5 10 -32 20 -60 9 -27 19 -57 22 -65 3 -8 6 -17
7 -20 1 -3 5 -14 9 -25 4 -11 12 -31 16 -45 4 -14 11 -34 16 -45 4 -11 8 -24
9 -30 1 -5 10 -32 20 -60 9 -27 18 -54 19 -60 2 -5 11 -37 21 -70 11 -33 19
-62 20 -65 0 -3 6 -23 13 -45 17 -56 130 -453 137 -480 1 -5 5 -17 8 -25 4 -8
17 -49 31 -92 85 -263 220 -448 452 -615 317 -230 711 -317 1067 -237 9 2 27
6 39 9 29 6 180 56 193 64 6 3 15 6 20 7 13 2 148 67 155 74 3 3 16 11 30 18
14 6 34 18 45 24 42 27 170 113 175 118 3 3 39 32 80 65 76 60 274 254 320
314 14 17 38 46 53 64 85 95 165 238 256 457 71 168 121 270 210 425 40 72 79
140 85 152 6 13 14 23 19 23 4 0 7 6 7 14 0 8 6 21 13 28 6 7 36 50 65 95 62
95 107 157 201 278 60 77 76 97 96 119 11 13 56 65 100 117 44 52 84 99 90
105 65 70 183 225 259 339 108 163 276 461 276 491 0 7 3 14 8 16 6 2 63 126
113 243 31 72 97 253 104 285 2 8 8 27 14 43 6 15 8 27 5 27 -2 0 0 9 6 21 6
11 13 28 15 37 2 9 11 46 20 82 9 36 19 76 21 90 3 14 7 39 11 55 4 17 7 32 8
35 1 3 5 30 9 60 4 30 10 64 12 75 26 142 25 572 -2 685 -3 14 -7 37 -9 52 -9
65 -64 264 -95 343 -38 95 -142 307 -160 325 -3 3 -11 17 -19 32 -8 15 -21 36
-30 45 -9 10 -22 30 -30 46 -8 15 -18 27 -23 27 -4 0 -8 6 -8 14 0 8 -3 16 -7
18 -5 2 -34 35 -67 73 -128 153 -252 271 -411 392 -78 59 -262 183 -271 183
-3 0 -29 16 -59 35 -30 19 -55 32 -55 29 0 -4 -7 -1 -15 6 -17 14 -158 84
-163 81 -2 -2 -13 4 -25 12 -21 14 -204 85 -237 92 -8 2 -58 15 -110 28 -85
22 -116 29 -197 43 -13 2 -35 6 -50 9 -16 3 -44 8 -63 10 -19 3 -48 7 -65 10
-16 3 -55 7 -85 10 -30 3 -77 7 -105 10 -27 3 -84 8 -125 10 -41 3 -113 8
-160 10 -193 13 -962 29 -971 21z m801 -1390 c204 -20 378 -83 565 -205 89
-58 257 -225 317 -316 42 -64 115 -195 119 -213 1 -4 6 -18 11 -32 6 -14 11
-29 12 -35 2 -5 8 -22 14 -36 5 -14 13 -39 16 -55 3 -16 10 -48 15 -71 22 -89
31 -302 17 -391 -3 -18 -8 -52 -11 -75 -4 -23 -8 -44 -10 -48 -2 -3 -7 -21
-10 -40 -3 -19 -9 -43 -14 -54 -5 -11 -17 -42 -27 -70 -18 -52 -108 -229 -124
-245 -3 -3 -27 -34 -55 -69 -49 -65 -184 -201 -197 -201 -5 0 -17 -9 -28 -20
-79 -79 -343 -197 -504 -226 -110 -19 -368 -26 -394 -10 -5 3 -31 8 -58 12
-27 3 -53 9 -58 12 -5 3 -20 6 -33 8 -47 5 -286 107 -313 134 -3 3 -17 11 -31
18 -14 8 -38 23 -52 35 -14 12 -40 33 -58 47 -30 23 -104 95 -160 156 -72 78
-184 278 -219 389 -7 22 -15 47 -18 55 -7 20 -9 29 -15 62 -3 15 -8 31 -10 35
-24 41 -25 434 -1 474 2 3 6 21 9 40 8 45 64 208 81 236 8 12 14 29 14 38 0 8
4 15 9 15 5 0 12 11 15 25 4 14 11 25 16 25 6 0 10 5 10 11 0 13 69 114 106
156 16 17 36 40 45 50 8 10 43 44 78 75 187 169 437 280 686 304 33 3 61 7 62
8 3 3 117 -2 183 -8z"/>
<path d="M3972 2034 c-47 -23 -72 -56 -91 -119 -10 -30 -56 -157 -68 -185 -3
-8 -7 -19 -9 -25 -1 -5 -21 -64 -44 -130 -39 -114 -87 -277 -94 -320 -2 -11
-11 -63 -20 -115 -10 -52 -19 -106 -21 -120 -2 -14 -7 -41 -10 -60 -3 -19 -10
-57 -15 -85 -5 -27 -11 -68 -14 -90 -3 -22 -12 -89 -21 -148 -25 -176 -29
-226 -29 -347 -1 -200 12 -237 91 -271 88 -37 203 -15 228 44 18 42 13 159
-11 297 -15 85 -19 146 -19 320 0 200 5 263 30 390 3 14 8 39 11 55 2 17 12
55 20 85 9 30 17 60 19 65 3 14 12 37 53 135 78 187 204 345 382 478 139 104
132 128 -40 136 -64 3 -122 7 -130 10 -13 4 -42 9 -128 20 -13 2 -44 -7 -70
-20z"/>
<path d="M5249 1535 c-3 -2 -36 -7 -75 -10 -39 -3 -82 -8 -95 -10 -13 -3 -44
-8 -69 -11 -76 -10 -260 -52 -350 -79 -47 -15 -89 -28 -95 -29 -44 -12 -135
-57 -135 -66 0 -8 150 -70 170 -70 5 0 10 -4 10 -9 0 -5 10 -11 23 -14 44 -9
182 -62 189 -72 4 -5 8 -6 8 -1 0 5 6 4 13 -2 6 -5 28 -13 47 -17 19 -4 41
-12 48 -17 6 -6 12 -8 12 -5 0 3 44 -8 98 -25 53 -16 104 -31 112 -33 8 -2 15
-4 15 -5 0 -1 7 -3 15 -5 54 -14 99 -27 205 -59 66 -20 129 -39 140 -41 22 -5
136 -39 208 -62 26 -8 53 -16 60 -17 7 -2 19 -5 27 -9 8 -3 38 -11 65 -18 28
-6 61 -18 75 -26 l25 -14 -25 5 c-14 2 -54 10 -90 16 -55 9 -218 42 -285 57
-11 2 -31 6 -45 9 -14 3 -41 9 -60 14 -19 5 -46 11 -60 14 -14 3 -63 15 -110
26 -47 11 -94 23 -105 25 -11 2 -72 18 -135 36 -63 17 -121 32 -127 32 -7 0
-13 3 -13 6 0 4 -12 8 -26 9 -14 1 -31 5 -37 9 -7 4 -16 8 -22 9 -10 2 -123
35 -235 70 -30 9 -64 20 -75 25 -11 4 -38 13 -60 20 -22 6 -50 16 -62 22 -12
5 -29 7 -37 4 -25 -10 6 -79 71 -161 91 -113 328 -346 403 -396 13 -8 33 -25
46 -37 13 -13 25 -23 28 -23 3 0 41 -24 85 -54 44 -29 133 -79 198 -111 65
-32 126 -62 135 -66 10 -5 25 -9 33 -9 8 0 23 -4 33 -9 16 -9 40 -18 52 -19 3
0 18 -5 33 -11 24 -9 91 -25 202 -47 108 -21 549 -21 584 0 3 2 31 7 61 10 30
4 73 11 95 17 22 5 54 12 70 15 17 3 82 21 145 39 252 73 295 103 304 208 6
69 -30 126 -184 290 -121 130 -201 203 -325 297 -98 75 -281 190 -302 190 -7
0 -13 5 -13 10 0 6 -4 10 -10 10 -5 0 -34 11 -64 25 -92 42 -253 95 -331 109
-16 3 -41 8 -55 11 -98 21 -368 36 -408 23 -15 -5 -21 -4 -17 2 6 10 2 14 -6
5z m771 -725 c0 -5 -2 -10 -4 -10 -3 0 -8 5 -11 10 -3 6 -1 10 4 10 6 0 11 -4
11 -10z"/>
</g>
</svg>
