<svg xmlns="http://www.w3.org/2000/svg" width="800" height="800" fill="none" viewBox="0 0 800 800">
  <g clip-path="url(#a)">
    <path fill="#fff" d="m145.5 357.5 246 386.5 173-206.5 92.5-201L616.5 161 510 33H377.5L240 71l-71 90-23.5 111.5v85Z"/>
    <path fill="#9BCE77" d="m400 796.853-21.333-26.4C326.773 707.04 117.333 420.8 117.333 281.92A270.187 270.187 0 0 1 375.253 0a264.181 264.181 0 0 1 23.734 0 270.188 270.188 0 0 1 281.92 281.92c0 118.027-142.347 325.92-249.494 472.053L400 796.853Zm-1.013-744.266a217.444 217.444 0 0 0-215.39 139.573 217.449 217.449 0 0 0-13.944 89.76c0 97.707 147.147 322.027 228.587 428.48 66.667-91.2 230.133-319.413 230.133-428.48a217.432 217.432 0 0 0-63.342-165.991A217.432 217.432 0 0 0 488.8 66.531a217.685 217.685 0 0 0-89.813-13.944Z"/>
    <path fill="#9BCE77" d="M434.526 151.386a76.606 76.606 0 0 1 26.031-1.889l1.06.052c12.602.414 20.7 1.656 32.137 6.598 15.215 6.521 30.119 18.216 45.075 36.122 38.967 46.6 33.456 150.721-14.051 210.933-3.105 3.933-12.937 16.818-12.42 16.146a172.482 172.482 0 0 1-12.161 14.464c-12.627 13.17-26.392 19.898-44.505 20.234-12.679.259-21.657-2.148-34.077-7.581l-2.639-1.165c-8.487-3.726-12.369-4.813-19.122-4.813-7.323 0-11.566 1.165-20.674 5.124l-2.614 1.138c-11.488 4.942-19.535 7.297-30.791 7.763-29.963 1.112-47.274-15.396-73.045-53.432-39.071-57.443-53.613-141.226-22.253-196.65 18.708-33.12 52.527-54.027 89.218-54.596 13.273-.233 24.374 2.768 40.287 9.185 10.971 4.399 14.05 5.563 15.111 5.77 6.572-8.15 11.23-14.955 13.972-20.312 5.486-10.634 10.997-24.244 16.457-40.753a12.951 12.951 0 0 1 23.872-1.711 12.949 12.949 0 0 1 .709 9.888c-5.097 15.318-10.272 28.462-15.577 39.485Zm-20.829 31.568c-5.874 7.193-12.86 15.111-20.985 23.779a12.943 12.943 0 0 1-18.888-17.699l4.968-5.356c-11.334-4.528-24.763-10.79-38.683-10.557-28.463.44-54.7 16.819-69.397 42.771-29.55 52.268-7.556 129.712 21.269 172.095 14.076 20.752 30.869 44.065 52.94 43.237 21.218-.854 29.239-14.024 54.933-14.024s32.861 14.024 55.372 13.558c22.822-.439 30.636-15.783 51.285-41.995 43.625-55.295 43.625-146.659 14.464-181.565-29.187-34.879-50.405-33.999-61.324-34.413-16.767-1.734-32.991 5.071-45.954 10.169Z"/>
  </g>
  <defs>
    <clipPath id="a">
      <path fill="#fff" d="M0 0h800v800H0z"/>
    </clipPath>
  </defs>
</svg>
