<svg xmlns="http://www.w3.org/2000/svg" width="272" height="387" fill="none" viewBox="0 0 272 387">
  <path fill="#fff" d="m13 169.382 118.374 187.453 83.247-100.153 44.51-97.485-19.488-85.117L188.395 12h-63.758L58.473 30.43 24.308 74.08 13 128.157v41.225Z"/>
  <path fill="#FBCEB1" d="m136.146 386.603-10.265-12.804C100.91 343.044.128 204.217.128 136.861c-1.531-34.72 10.684-68.631 33.96-94.273C57.362 16.946 89.79 1.673 124.238.129c3.798-.172 7.605-.172 11.421 0 34.447-1.543 68.092 10.769 93.533 34.228 25.441 23.46 40.594 56.144 42.125 90.864.171 3.88.171 7.76 0 11.64 0 57.243-68.497 158.071-120.055 228.945l-15.116 20.797Zm-.487-360.969a103.885 103.885 0 0 0-43.193 6.763 104.548 104.548 0 0 0-36.682 23.958 105.548 105.548 0 0 0-23.77 36.972 106.217 106.217 0 0 0-6.71 43.534c0 47.387 70.807 156.183 109.995 207.812 32.08-44.232 110.739-154.915 110.739-207.812a106.21 106.21 0 0 0-6.71-43.534 105.533 105.533 0 0 0-23.77-36.972 104.54 104.54 0 0 0-36.682-23.958 104 104 0 0 0-43.217-6.763Z"/>
  <g clip-path="url(#a)">
    <path fill="#FBCEB1" stroke="#FBCEB1" d="M87.284 104.092a2.892 2.892 0 0 0-4.072-.378 58.31 58.31 0 0 0-4.242 3.892c-1.13 1.145-1.073 2.945.018 4.08.713.741 1.623.869 2.376.759.73-.107 1.398-.447 1.723-.777a52.375 52.375 0 0 1 3.82-3.504 2.892 2.892 0 0 0 .377-4.072Z"/>
    <path fill="#FBCEB1" stroke="#FBCEB1" d="M161.679 75.691a1.896 1.896 0 0 0-1.634-1.96c-.192-.025-1.296-.16-2.961-.16-2.197 0-5.525.24-8.925 1.38-3.069 1.026-6.38 2.844-8.864 6.05-2.479 3.201-4.172 7.83-3.929 14.552a1.87 1.87 0 0 0 1.531 1.782c.144.028 1.625.298 3.783.298 2.689 0 5.241-.4 7.586-1.183l.011-.004 13.402-20.755Zm0 0c-.295 5.999-1.841 10.853-4.556 14.465-2.217 2.95-5.188 5.066-8.845 6.29m13.401-20.755-13.401 20.755m0 0h-.001.001Zm14.79-4.774c2.616-4.281 4.086-9.553 4.388-15.698.194-3.957-2.727-7.459-6.654-7.977h-.001l-.052-.007c-.76-.109-7.962-1.134-15.343 1.793-4.105-7.486-10.919-11.702-11.762-12.203-3.443-2.05-7.955-1.101-10.28 2.162a44.22 44.22 0 0 0-2.505 3.925 2.892 2.892 0 0 0 1.101 3.938l.241-.428-.241.428a2.892 2.892 0 0 0 3.939-1.1 38.098 38.098 0 0 1 2.175-3.407 1.984 1.984 0 0 1 2.612-.549c.26.155 6.121 3.702 9.564 9.861a22.973 22.973 0 0 0-4.985 4.421l.373.313-.373-.313c-3.517 4.2-5.405 9.553-5.669 15.91-2.554-2.323-5.401-5.827-6.53-10.531a18.306 18.306 0 0 1-.412-6.07 2.892 2.892 0 0 0-5.756-.562 24.08 24.08 0 0 0 .545 7.98 24.267 24.267 0 0 0 2.768 6.755 43.553 43.553 0 0 0-1.921.037 58.92 58.92 0 0 0-7.126.74c-5.84.958-13.54 3.076-21.076 7.713-1.351.832-1.818 2.616-.959 3.98.599.949 1.495 1.263 2.263 1.304.38.02.734-.025 1.021-.092.278-.064.527-.157.687-.254 8.195-4.995 17.636-7.635 27.3-7.635 1.528 0 3.071.067 4.588.198 3.304 3.216 8.082 6.83 15.674 7.111h.019c3.087 0 6.052-.438 8.828-1.297 2.081.91 9.89 4.533 14.452 9.479l.325-.3-.325.3c.307.332.908.722 1.63.865.75.147 1.642.027 2.45-.695 1.202-1.073 1.249-2.923.171-4.092l-.367.339.367-.339c-3.503-3.798-8.387-6.814-12.015-8.74a23.096 23.096 0 0 0 2.718-2.164 52.144 52.144 0 0 1 40.762 33.501c3.202 8.704 3.241 18.937 3.241 19.366 0 34.75-30.213 63.078-67.419 63.078-37.078 0-67.29-28.23-67.417-62.85v-.036l.002-.101a59.185 59.185 0 0 1 .058-1.768 77.55 77.55 0 0 1 .381-4.786c.431-3.886 1.28-8.861 2.945-13.329l-.464-.173.464.173a51.259 51.259 0 0 1 6.504-12.137 2.892 2.892 0 1 0-4.686-3.389 57.038 57.038 0 0 0-7.237 13.506c-3.712 9.956-3.75 21.551-3.75 22.051v.002c.067 18.381 7.738 35.64 21.589 48.594 13.81 12.917 32.141 20.027 51.61 20.027 19.514 0 37.876-7.137 51.696-20.105 13.865-13.008 21.507-30.324 21.507-48.757h-.5l-45.133-57.966Z"/>
    <path fill="#FBCEB1" stroke="#FBCEB1" d="M185.961 181.142a2.892 2.892 0 0 0-4.067.434 55.655 55.655 0 0 1-5.592 5.965 2.891 2.891 0 1 0 3.918 4.254 61.375 61.375 0 0 0 6.175-6.587 2.891 2.891 0 0 0-.434-4.066Zm-43.714 21.647c9.186-.991 18.094-4.07 25.759-8.904a2.891 2.891 0 1 1 3.085 4.892c-8.41 5.303-18.169 8.678-28.224 9.762l-.62-5.75Zm0 0a2.892 2.892 0 0 0-2.566 3.185m2.566-3.185-2.566 3.185m0 0a2.893 2.893 0 0 0 2.873 2.582m-2.873-2.582 2.873 2.582m0 0c.102 0 .207-.005.312-.017l-.312.017Z"/>
  </g>
  <defs>
    <clipPath id="a">
      <path fill="#fff" d="M55 57h161v161H55z"/>
    </clipPath>
  </defs>
</svg>
