<svg xmlns="http://www.w3.org/2000/svg" width="272" height="387" fill="none" viewBox="0 0 272 387">
  <path fill="#fff" d="m13 169.382 118.374 187.453 83.247-100.153 44.51-97.485-19.488-85.117L188.395 12h-63.758L58.473 30.43 24.308 74.08 13 128.157v41.225Z"/>
  <path fill="#FF8A00" d="m136.146 386.603-10.265-12.804C100.91 343.044.128 204.217.128 136.861c-1.531-34.72 10.684-68.631 33.96-94.273C57.362 16.946 89.79 1.673 124.238.129c3.798-.172 7.605-.172 11.421 0 34.447-1.543 68.092 10.769 93.533 34.228 25.441 23.46 40.594 56.144 42.125 90.864.171 3.88.171 7.76 0 11.64 0 57.243-68.497 158.071-120.055 228.945l-15.116 20.797Zm-.487-360.969a103.885 103.885 0 0 0-43.193 6.763 104.548 104.548 0 0 0-36.682 23.958 105.548 105.548 0 0 0-23.77 36.972 106.217 106.217 0 0 0-6.71 43.534c0 47.387 70.807 156.183 109.995 207.812 32.08-44.232 110.739-154.915 110.739-207.812a106.21 106.21 0 0 0-6.71-43.534 105.533 105.533 0 0 0-23.77-36.972 104.54 104.54 0 0 0-36.682-23.958 104 104 0 0 0-43.217-6.763Z"/>
  <path fill="#FF8A00" d="M136 220c-48.598 0-88-39.402-88-88s39.402-88 88-88 88 39.402 88 88-39.402 88-88 88Zm0-151.54c-35.056 0-63.54 28.484-63.54 63.54s28.484 63.54 63.54 63.54 63.54-28.484 63.54-63.54S171.056 68.46 136 68.46Z"/>
  <path fill="#FF8A00" d="M85.032 128.516c.79.108 2.119.287 2.802 1.939.574 1.94-.432 4.059-2.228 4.742-1.544.574-3.088-.144-3.77-1.545-.432-.97-.145-2.083.43-2.945.108-.934 1.473-2.371 2.766-2.191Zm6.285-5.603c-.682 1.257-1.94 2.37-3.34 2.801-1.544.575-3.089-.287-3.628-1.688-.574-1.544.288-3.089 1.688-3.628a.308.308 0 0 0 .288-.287c.575-.97 2.119-1.94 3.915-.97 1.329.575 1.76 2.371 1.078 3.772Zm3.485-12.141c-1.401.683-3.09 0-3.772-1.401-.682-1.4 0-3.089 1.401-3.771 1.4-.575 2.658-1.544 3.628-2.658.575-.682 2.37-1.652 3.915-.287 1.257.97 1.257 2.801.287 4.058-1.4 1.689-3.376 3.089-5.46 4.059Zm16.199-18.857-3.915 2.227c-1.401.826-3.089.287-3.915-.97-.827-1.4-.288-3.089.969-3.915l3.916-2.227c1.652-1.005 3.34.144 3.915.97.862 1.4.431 3.233-.97 3.915Zm13.972-2.227-2.802.287c-1.544.144-2.945-.97-3.196-2.514-.144-1.544.969-2.945 2.514-3.197l2.802-.287c1.508-.18 2.945 1.114 3.089 2.514.395 1.653-.755 3.053-2.407 3.197Zm22.341-4.598c-2.658.144-5.459-.143-8.117-.682-1.545-.287-2.515-1.832-2.227-3.34.287-1.401 1.832-2.479 3.34-2.227 2.227.43 4.454.682 6.717.575 1.544 0 2.945 1.113 2.945 2.801.288 1.473-.97 2.73-2.658 2.874Zm17.6 9.196c-2.514-1.257-5.028-2.658-7.255-4.346-1.257-.97-1.545-2.658-.683-4.06 1.545-1.939 3.484-1.113 4.059-.682 1.94 1.401 4.203 2.658 6.43 3.772 1.4.682 2.083 2.37 1.4 3.771-.754 1.688-2.55 2.263-3.951 1.545Zm11.853 9.913c-1.4.826-3.089.288-3.915-1.113l-2.227-4.059c-.826-1.4-.287-3.089 1.114-3.915 1.796-1.042 3.34.144 3.915 1.113l2.227 4.059c.862 1.401.287 3.089-1.114 3.915Zm7.292 14.26a2.805 2.805 0 0 1-2.802-2.802v-3.771a2.805 2.805 0 0 1 2.802-2.802 2.805 2.805 0 0 1 2.801 2.802v3.771c.108 1.545-1.149 2.802-2.801 2.802Zm1.257 4.166c1.544.288 2.514 1.832 2.227 3.341l-.97 4.346c-.287 1.544-1.832 2.514-3.34 2.227-1.545-.288-2.515-1.832-2.227-3.341l.97-4.346c.251-1.365 1.58-2.406 3.34-2.227Zm-9.375 4.203c-1.544.143-2.945-1.114-3.089-2.658l-.287-5.855c-.144-1.688 1.113-3.089 2.658-3.089 1.293-.144 3.017 1.006 2.945 2.658l.288 5.855c.287 1.544-.97 2.945-2.515 3.089Zm-7.543-11.027v3.089a2.805 2.805 0 0 1-2.801 2.801 2.805 2.805 0 0 1-2.802-2.801v-3.089a2.805 2.805 0 0 1 2.802-2.802 2.805 2.805 0 0 1 2.801 2.802Zm-7.543-5.711c-1.544-.144-2.801-1.545-2.657-3.089l.287-3.772c.144-1.544 1.688-2.909 3.089-2.658 1.544.144 2.801 1.545 2.658 3.089l-.288 3.772a2.883 2.883 0 0 1-3.089 2.658Zm-7.83-6.034c-.682 1.4-2.514 1.939-3.915 1.113-1.401-.682-1.939-2.514-1.113-3.915.574-1.114.97-2.37 1.257-3.772.287-1.4 1.76-2.765 3.197-2.37 1.544.287 2.658 1.688 2.37 3.197-.251 2.119-.79 4.094-1.796 5.747Zm-16.738-.539v-3.772a2.806 2.806 0 0 1 2.802-2.801 2.805 2.805 0 0 1 2.802 2.801v3.772a2.805 2.805 0 0 1-2.802 2.801 2.806 2.806 0 0 1-2.802-2.801Zm-8.405 5.172c-1.544.287-3.089-.826-3.196-2.371l-.431-2.227c-.288-1.544.826-3.089 2.37-3.196 1.617-.216 3.089.97 3.197 2.514l.287 2.083c.431 1.509-.682 2.91-2.227 3.197Zm-12.427 8.8a2.805 2.805 0 0 1-2.802-2.802v-4.346a2.805 2.805 0 0 1 2.802-2.801 2.805 2.805 0 0 1 2.801 2.801v4.346a2.805 2.805 0 0 1-2.801 2.802Zm-11.171 1.257.287 1.545c.288 1.544-.682 3.089-2.226 3.34-1.545.287-3.09-.682-3.34-2.227l-.288-1.544c-.288-1.545.682-3.089 2.227-3.341 1.796-.251 3.089.826 3.34 2.227Zm-9.195 14.367a2.907 2.907 0 0 1 2.658-1.831c2.335 0 3.197 2.227 2.802 3.771 0 .144 0 .287.143.431 1.257.826 1.688 2.658.683 4.059-.826 1.257-2.658 1.688-4.06.682-2.226-1.508-3.088-4.454-2.226-7.112Zm.539 15.517a2.805 2.805 0 0 1-2.802 2.802 2.805 2.805 0 0 1-2.801-2.802v-3.089a2.805 2.805 0 0 1 2.801-2.801 2.805 2.805 0 0 1 2.802 2.801v3.089Zm-3.915 6.43s2.694-.216 2.945 2.658c.036.431.144.682.431.969 1.113 1.114.97 2.946-.144 4.059-1.113 1.114-2.945.97-4.058-.144-1.114-1.257-1.832-2.945-1.94-4.597 0-1.437 1.257-2.838 2.766-2.945Zm7.973 10.595c1.796-.215 3.09.97 3.341 2.371 0 .287.287.431.431.575 1.401.682 1.832 2.514 1.113 3.915-.718 1.401-2.514 1.832-3.915 1.113-1.688-.969-2.945-2.658-3.196-4.454-.288-1.688.682-3.232 2.227-3.52Zm4.454-4.884c-1.4.826-3.089.431-3.915-.97-.682-1.257-.97-2.802-.574-4.203.431-1.257 2.083-2.622 3.627-1.939 1.401.431 2.371 1.832 1.94 3.34.754 1.257.18 2.945-1.078 3.772Zm5.029-19.971c.287 0 1.94.431 1.94.431 1.544.431 2.514 1.94 2.083 3.484-.431 1.545-1.94 2.514-3.484 2.083l-1.257-.287c-1.545-.431-2.515-1.94-2.084-3.484.431-1.257 1.545-2.227 2.802-2.227Zm4.346-8.118c-.144 0-.144 0 0 0-1.688.288-3.089-.826-3.34-2.37-.288-1.545 1.257-3.7 3.34-3.341.97.144 1.832.288 2.658.683 1.401.682 1.94 2.37 1.114 3.771-.827 1.401-2.371 1.976-3.772 1.257Zm6.861-15.337c1.975-.754 3.34.288 3.771 1.257l.97 1.832c.682 1.401.143 3.089-1.257 3.772-1.401.682-3.089.143-3.772-1.257l-.97-1.832a2.775 2.775 0 0 1 1.258-3.772Zm16.594 2.91c-.97 1.257-2.802 1.544-4.059.574l-3.34-2.514c-1.258-.97-1.545-2.801-.575-4.059.575-.682 2.155-1.76 4.059-.574l3.34 2.514c1.149 1.149 1.437 2.802.575 4.059Zm10.775-5.568c.97.826 1.688 1.94 2.227 3.197a2.897 2.897 0 0 1-1.544 3.772 2.899 2.899 0 0 1-3.772-1.545 2.275 2.275 0 0 0-.826-1.113c-1.113-1.114-1.257-2.946-.143-4.059.538-.683 2.083-1.652 4.058-.252Zm9.483 9.339c2.047-1.006 3.484.144 4.059.97l.969 1.544c.826 1.401.431 3.089-.969 3.915-1.401.827-3.089.432-3.916-.969l-.969-1.545c-1.006-1.401-.575-3.197.826-3.915Zm26.256 13.146v3.341a2.805 2.805 0 0 1-2.802 2.801 2.805 2.805 0 0 1-2.801-2.801v-3.341a2.805 2.805 0 0 1 2.801-2.801 2.805 2.805 0 0 1 2.802 2.801Zm-11.171-.97c-.143 1.94-1.113 3.772-2.801 4.742-1.401.826-3.089.431-3.915-.826-.826-1.401-.431-3.089.826-3.916.144 0 .144-.143.144-.287.071-1.58 1.831-2.981 2.945-2.658 1.688 0 2.945 1.257 2.801 2.945Zm5.604 20.222c1.903-.538 3.196.575 3.628 1.832l.287.97c.575 1.545-.287 3.089-1.832 3.628-1.544.539-3.089-.287-3.628-1.832l-.287-.97c-.575-1.365.287-3.053 1.832-3.628Zm-13.721 13.829 2.083-1.544c1.652-1.222 3.484-.144 4.059.574.97 1.257.682 3.089-.682 4.059l-2.084 1.545c-1.257.969-3.089.682-4.059-.683-.826-1.293-.574-3.089.683-3.951Zm-10.74 7.687 3.089-2.084c1.868-1.221 3.341-.143 3.915.683.827 1.257.575 3.089-.682 3.915l-3.089 2.083c-1.257.826-3.089.575-3.915-.682-1.006-1.257-.718-3.053.682-3.915Zm-16.055 0c.97.143 2.083 0 3.089-.144 1.544-.575 3.197.682 3.484 2.083.431 1.545-.575 3.089-2.083 3.484-1.689.431-3.341.575-5.029.288-1.544-.144-2.658-1.545-2.514-3.197.108-1.545 1.508-2.658 3.053-2.514Zm-17.457-.97c.432-.288 1.545-.934 2.946-.288 1.401.683 1.939 2.371 1.257 3.916-.97 1.939-3.484 2.801-5.46 1.831-1.4-.682-1.939-2.37-1.257-3.771.539-1.006 1.545-1.688 2.514-1.688Zm-2.37-11.853c1.401.826 1.688 2.658.826 3.915-.287.431-.431 1.113-.431 1.688 0 1.544-1.401 2.945-2.945 2.802-1.545 0-2.802-1.401-2.802-2.946 0-1.688.575-3.196 1.401-4.597.575-.862 2.191-1.868 3.951-.862Zm6.142-10.919c.144 1.544-.97 2.945-2.514 3.089-.431 0-.827.143-1.258.431-1.4.826-3.089.431-3.915-.827-.826-1.4-.431-3.089.826-3.915a8.875 8.875 0 0 1 3.772-1.257c1.437-.287 2.945 1.078 3.089 2.479Zm4.741 11.745h1.832a2.806 2.806 0 0 1 2.802 2.802 2.806 2.806 0 0 1-2.802 2.801h-1.832a2.805 2.805 0 0 1-2.801-2.801c0-1.545 1.113-2.802 2.801-2.802Zm-6.142-20.258c-1.544-.287-2.658-1.832-2.371-3.34.432-2.371 2.227-4.347 4.598-4.885 1.652-.575 3.197.682 3.484 2.083.431 1.544-.575 3.089-2.083 3.484a.309.309 0 0 0-.287.287c-.288 1.545-1.796 2.515-3.341 2.371Zm9.231 6.429c.287-1.544 1.832-2.514 3.341-2.227h.431c1.939-.79 3.34.288 3.915 1.401.682 1.401.143 3.089-1.401 3.772-1.257.574-2.658.682-4.059.431-1.688-.324-2.658-1.832-2.227-3.377Zm.395-18.857-1.832.287c-1.544.288-3.089-.826-3.34-2.37-.287-1.545.826-3.089 2.371-3.341l1.831-.287c1.401-.287 3.089.97 3.197 2.371.431 1.508-.682 3.053-2.227 3.34Zm19.576.683c-.575 1.4-2.227 2.083-3.772 1.544l-2.227-.826c-1.4-.575-2.083-2.227-1.544-3.771.431-1.114 2.119-2.371 3.771-1.545l2.227.826c1.401.719 2.084 2.407 1.545 3.772Zm-8.261 4.202a2.805 2.805 0 0 1 2.801 2.802 2.805 2.805 0 0 1-2.801 2.801h-1.258a2.805 2.805 0 0 1-2.801-2.801 2.805 2.805 0 0 1 2.801-2.802h1.258Zm-2.084 29.345c-.574-1.4.144-3.089 1.545-3.771l1.544-.575c1.724-.79 3.341.431 3.772 1.545.574 1.401-.144 3.089-1.545 3.771l-1.544.575c-1.401.539-3.089-.144-3.772-1.545Zm16.199-1.257c-1.257-.826-1.688-2.658-.682-4.059l2.227-3.089c.575-.826 2.263-1.903 4.059-.682 1.257.826 1.688 2.658.682 4.059l-2.227 3.089c-1.005 1.221-2.801 1.508-4.059.682Zm-9.482-12.32c-.97-1.257-.682-3.089.575-4.059l1.257-.969c.575-.431 2.263-1.222 3.915.574.97 1.257.682 3.089-.575 4.059l-1.257.826c-1.293.97-2.945.826-3.915-.431Zm14.08-7.65c-1.257.826-3.089.431-3.915-.827-1.545-.287-2.514-1.688-2.227-3.196.287-1.401 1.688-2.586 3.197-2.371 1.544.287 3.089 1.257 3.915 2.658.862 1.078.431 2.874-.97 3.736Zm6.286 5.998c-.288-1.545.826-3.089 2.37-3.34l1.832-.288c1.545-.251 3.089.97 3.197 2.371.287 1.544-.826 3.089-2.371 3.34l-1.832.288c-1.364.287-2.909-.827-3.196-2.371ZM180 147.517c.611-.97 3.34-2.012 5.46-.144.969 1.257.826 3.089-.431 4.059-1.258 1.113-3.197 1.113-4.454.144-1.293-1.006-1.545-2.802-.575-4.059Zm-37.283-57.29a2.805 2.805 0 0 1-2.802 2.802h-3.089a2.806 2.806 0 0 1-2.802-2.802 2.806 2.806 0 0 1 2.802-2.802h3.089c1.545-.108 2.802 1.15 2.802 2.802Zm-30.603 12.428c-1.544.143-2.945-.97-3.089-2.515-.143-1.544.97-2.945 2.515-3.089 0 0 .143 0 .143-.143.575-.683 2.299-1.832 4.059-.575 1.257.97 1.545 2.802.575 4.059-.97 1.149-2.515 2.155-4.203 2.263Z"/>
</svg>
