<svg xmlns="http://www.w3.org/2000/svg" width="272" height="387" fill="none" viewBox="0 0 272 387">
  <path fill="#fff" d="m18 167.382 118.374 187.453 83.247-100.153 44.51-97.485-19.488-85.117L193.395 10h-63.758L63.473 28.43 29.308 72.08 18 126.157v41.225Z"/>
  <path fill="#560063" d="m136.146 386.603-10.265-12.804C100.91 343.044.128 204.217.128 136.861c-1.531-34.72 10.684-68.631 33.96-94.273C57.362 16.946 89.79 1.673 124.238.129c3.798-.172 7.605-.172 11.421 0 34.447-1.543 68.092 10.769 93.533 34.228 25.441 23.46 40.594 56.144 42.125 90.864.171 3.88.171 7.76 0 11.64 0 57.243-68.497 158.071-120.055 228.945l-15.116 20.797Zm-.487-360.969a103.885 103.885 0 0 0-43.193 6.763 104.548 104.548 0 0 0-36.682 23.958 105.548 105.548 0 0 0-23.77 36.972 106.217 106.217 0 0 0-6.71 43.534c0 47.387 70.807 156.183 109.995 207.812 32.08-44.232 110.739-154.915 110.739-207.812a106.21 106.21 0 0 0-6.71-43.534 105.533 105.533 0 0 0-23.77-36.972 104.54 104.54 0 0 0-36.682-23.958 104 104 0 0 0-43.217-6.763Z"/>
  <path fill="#560063" d="M213.223 142.12c0-17.743-14.103-31.846-31.845-31.846-8.644 0-16.833 3.64-22.747 9.554-4.549-5.005-10.918-8.189-17.743-9.099 1.82-15.468 15.468-27.751 31.391-27.751 2.73 0 4.549-1.82 4.549-4.55 0-2.729-1.82-4.549-4.549-4.549-10.464 0-20.472 4.095-28.206 11.374-1.365-7.28-4.549-13.648-10.009-18.653-7.733-7.733-19.107-11.373-30.48-10.463-2.275 0-3.64 1.82-4.095 4.094-1.365 11.829 2.73 22.747 10.464 30.481 2.275 2.275 4.549 3.64 6.824 5.46 2.275 1.364 5.004.455 6.369-1.365 1.365-2.275.455-5.005-1.365-6.37-1.82-.91-3.639-2.274-5.004-4.094-5.459-5.004-8.189-11.828-8.189-19.562 7.734 0 14.558 2.73 19.563 7.734 5.914 5.914 8.643 14.103 7.733 23.656 0 .456 0 .91-.455 1.365 0 .455-.909 2.275-1.364 2.73-1.82 4.549-2.73 9.554-2.73 14.558 0 2.729 1.82 4.549 4.549 4.549 12.738 0 22.747 10.009 22.747 22.747s-10.009 22.747-22.747 22.747-22.747-10.009-22.747-22.747c0-6.369 2.73-12.738 7.734-16.833 1.82-1.82 1.82-4.549.455-6.369-1.82-1.82-4.549-1.82-6.369-.455l-1.365 1.365c-5.914-5.914-14.103-9.554-22.746-9.554C73.103 110.274 59 124.377 59 142.12c0 17.742 14.103 31.845 31.846 31.845 3.639 0 7.278-.455 10.463-1.82 2.275-.909 3.64-3.639 2.73-5.914-.91-2.274-3.64-3.639-5.914-2.729-2.73.91-5.004 1.365-7.734 1.365-12.738 0-22.747-10.009-22.747-22.747s10.009-22.747 22.747-22.747c6.824 0 13.193 3.184 17.287 8.189-2.274 4.549-3.639 9.553-3.639 14.557 0 16.833 13.193 30.936 30.026 31.846 1.364 2.73 1.819 5.914 1.819 9.099 0 12.738-10.008 22.747-22.746 22.747-11.374 0-20.473-8.189-22.292-19.108-.455-2.274-2.73-4.094-5.46-3.639-2.274.455-4.094 2.729-3.639 5.459C84.022 201.261 93.576 211.27 105.86 214c-1.365 3.184-1.82 6.369-1.82 10.008 0 17.743 14.103 31.846 31.845 31.846 15.468 0 28.661-11.374 31.391-26.386.455-2.275-1.365-5.005-3.639-5.46-2.275-.455-5.005 1.365-5.46 3.64-1.82 10.918-10.918 19.107-22.292 19.107-12.738 0-22.746-10.009-22.746-22.747 0-3.184.909-6.369 1.82-9.099 16.832-.909 30.025-15.012 30.025-31.845 0-3.64-.455-6.824-1.82-10.009 14.103-3.185 24.567-15.922 24.567-30.935 0-5.46-1.365-10.464-3.64-14.558 4.095-5.004 10.464-8.189 17.288-8.189 12.738 0 22.746 10.009 22.746 22.747s-10.008 22.747-22.746 22.747c-2.73 0-5.005-.455-7.734-1.365-2.275-.91-5.005.455-5.914 2.73-.91 2.274.455 5.004 2.729 5.914 2.73.91 5.46 1.365 8.644 1.82 1.365 2.729 1.82 5.914 1.82 9.099 0 12.738-10.009 22.746-22.747 22.746-2.729 0-5.004-.455-7.734-1.364-2.274-.91-5.004.455-5.914 2.729-.91 2.275.455 5.004 2.73 5.914 3.639 1.365 6.824 1.82 10.464 1.82 17.742 0 31.845-14.103 31.845-31.845 0-3.64-.455-6.825-1.82-10.009 15.013-3.186 25.476-15.923 25.476-30.936Z"/>
</svg>
