<svg xmlns="http://www.w3.org/2000/svg" width="272" height="387" fill="none" viewBox="0 0 272 387">
  <path fill="#fff" d="m14 173.382 118.374 187.453 83.247-100.153 44.51-97.485-19.488-85.117L189.395 16h-63.758L59.473 34.43 25.308 78.08 14 132.157v41.225Z"/>
  <path fill="#217D3D" d="m136.146 386.603-10.265-12.804C100.91 343.044.128 204.217.128 136.861c-1.531-34.72 10.684-68.631 33.96-94.273C57.362 16.946 89.79 1.673 124.238.129c3.798-.172 7.605-.172 11.421 0 34.447-1.543 68.092 10.769 93.533 34.228 25.441 23.46 40.593 56.144 42.125 90.864.171 3.88.171 7.76 0 11.64 0 57.243-68.497 158.071-120.055 228.945l-15.116 20.797Zm-.487-360.969a103.885 103.885 0 0 0-43.193 6.763 104.548 104.548 0 0 0-36.682 23.958 105.548 105.548 0 0 0-23.77 36.972 106.217 106.217 0 0 0-6.71 43.534c0 47.387 70.807 156.183 109.995 207.812 32.08-44.232 110.739-154.915 110.739-207.812a106.21 106.21 0 0 0-6.71-43.534 105.533 105.533 0 0 0-23.77-36.972 104.54 104.54 0 0 0-36.682-23.958 104 104 0 0 0-43.217-6.763Z"/>
  <path fill="#217D3D" stroke="#217D3D" stroke-width="1.739" d="M201.677 143.894h-14.471c5.549-16.361 5.329-33.293-1.339-47.329 2.289-6.802.858-14.285-4.245-19.387-5.031-5.031-12.487-6.546-19.381-4.235-7.321-3.468-15.634-5.28-24.381-5.28-20.002 0-40.657 9.182-56.668 25.193-23.614 23.614-31.448 56.569-19.996 80.885-2.428 6.797-1.181 14.481 4.1 19.763 5.201 5.2 12.89 6.563 19.777 4.1 7.278 3.413 15.527 5.196 24.203 5.196a66.7 66.7 0 0 0 5.952-.271c10.814 10.402 25.498 16.808 41.652 16.808 33.251.001 60.121-27.039 60.12-60.12 0-8.469-6.853-15.323-15.323-15.323Zm-116.63 41.739c-3.803 3.339-9.188 3.585-12.326.446-3.139-3.139-2.894-8.523.445-12.327-12.832-20.114-6.85-51.171 15.45-73.472 14.517-14.516 32.74-22.118 49.243-22.117 8.86 0 17.224 2.191 24.25 6.68 3.787-3.145 9.015-3.314 12.088-.241 3.074 3.073 2.904 8.3-.24 12.088 8.271 12.948 8.739 30.436 2.073 47.204h-63.949c-8.468-.001-15.323 6.854-15.322 15.323a59.758 59.758 0 0 0 9.901 33.012c-7.877-.392-15.288-2.561-21.613-6.596Zm22.212-26.417a4.823 4.823 0 0 1 4.822-4.822h30.943l-29.296 29.296a49.31 49.31 0 0 1-6.469-24.474Zm12.69 33.102 31.681-31.681v47.922c-12.534-1.324-23.69-7.334-31.681-16.241Zm42.18 16.241v-47.921l31.682 31.681c-8.242 9.184-19.497 14.953-31.682 16.24Zm37.902-24.868-29.297-29.297h30.943a4.822 4.822 0 0 1 4.823 4.822 49.316 49.316 0 0 1-6.469 24.475Z"/>
</svg>
