<svg xmlns="http://www.w3.org/2000/svg" width="272" height="387" fill="none" viewBox="0 0 272 387">
  <path fill="#fff" d="m17.5 120 8.5 44.382L67 261l70.637 101L221.5 246l31.143-98.5V69.08L192.5 25.43 137.637 7 71.473 25.43 37.308 69.08 17.5 120Z"/>
  <path fill="#D67F3F" d="m136.146 386.603-10.265-12.804C100.91 343.044.128 204.217.128 136.861c-1.531-34.72 10.684-68.631 33.96-94.273C57.362 16.946 89.79 1.673 124.238.129c3.798-.172 7.605-.172 11.421 0 34.447-1.543 68.092 10.769 93.533 34.228 25.441 23.46 40.593 56.144 42.125 90.864.171 3.88.171 7.76 0 11.64 0 57.243-68.497 158.071-120.055 228.945l-15.116 20.797Zm-.487-360.969a103.885 103.885 0 0 0-43.193 6.763 104.548 104.548 0 0 0-36.682 23.958 105.548 105.548 0 0 0-23.77 36.972 106.217 106.217 0 0 0-6.71 43.534c0 47.387 70.807 156.183 109.995 207.812 32.08-44.232 110.739-154.915 110.739-207.812a106.21 106.21 0 0 0-6.71-43.534 105.533 105.533 0 0 0-23.77-36.972 104.54 104.54 0 0 0-36.682-23.958 104 104 0 0 0-43.217-6.763Z"/>
  <path fill="#D67F3F" fill-rule="evenodd" d="M144.15 91.061c2.779-8.583 10.815-14.788 20.294-14.788V62c-10.581 0-20.082 4.638-26.596 12-5.156-7.263-13.617-12-23.181-12h-14.223v14.273a28.505 28.505 0 0 0 8.449 20.301C87.097 106.816 72 129.025 72 154.773 72 190.244 100.654 219 136 219c35.346 0 64-28.756 64-64.227 0-32.701-24.352-59.694-55.85-63.712ZM136 104.818c-27.491 0-49.778 22.366-49.778 49.955S108.51 204.727 136 204.727c27.492 0 49.778-22.365 49.778-49.954 0-27.589-22.286-49.955-49.778-49.955Zm21.333 49.955c0-11.824-9.551-21.409-21.333-21.409v-14.273c19.637 0 35.556 15.975 35.556 35.682h-14.223Zm-28.444-64.227c-7.855 0-14.222-6.39-14.222-14.273 7.854 0 14.222 6.39 14.222 14.273Z" clip-rule="evenodd"/>
</svg>
