<svg xmlns="http://www.w3.org/2000/svg" width="271" height="384" fill="none" viewBox="0 0 271 384">
  <path fill="#fff" d="m13 176.382 118.374 187.453 83.247-100.153 44.51-97.485-19.488-85.117L188.395 19h-63.758L58.473 37.43 24.308 81.08 13 135.157v41.225Z"/>
  <path fill="#6BA840" d="m135.923 384-10.249-12.718C100.744 340.734.128 202.842.128 135.939-1.4 101.453 10.795 67.77 34.032 42.301 57.269 16.831 89.644 1.661 124.034.129c3.792-.172 7.593-.172 11.402 0 34.391-1.534 67.981 10.696 93.38 33.997 25.399 23.3 40.527 55.765 42.056 90.251.171 3.854.171 7.708 0 11.562 0 56.858-68.384 157.007-119.858 227.404L135.923 384Zm-.487-358.539a104.197 104.197 0 0 0-43.121 6.718 104.428 104.428 0 0 0-36.622 23.796 104.78 104.78 0 0 0-23.731 36.723 105.01 105.01 0 0 0-6.699 43.241c0 47.069 70.69 155.131 109.814 206.413 32.027-43.934 110.558-153.872 110.558-206.413a105.021 105.021 0 0 0-6.699-43.24 104.786 104.786 0 0 0-23.731-36.724 104.433 104.433 0 0 0-36.622-23.796 104.316 104.316 0 0 0-43.147-6.718Z"/>
  <g clip-path="url(#a)">
    <path fill="#6BA840" d="M184.277 151.694c-2.795-4.168-4.867-8.966-6.159-14.261-4.032-16.528-12.407-38.384-24.545-50.909 11.838-6.177 17.436-18.904 14.434-30.774-.558-2.204-2.325-3.96-4.635-4.604-14.847-4.137-30.923 3.22-36.237 17.367l-7.169-6.744c-2.627-2.472-6.887-2.472-9.515 0-2.628 2.472-2.628 6.48 0 8.953l9.909 9.323c-16.972 10.013-27.984 38.765-32.498 57.133-1.348 5.486-3.442 10.371-6.221 14.518C60.639 183.024 94.426 225 132.959 225c32.579 0 57.848-28.217 57.848-52.491-.001-7.246-2.259-14.444-6.53-20.815Zm-28.934-89.027c-.274 7.954-7.039 14.438-15.598 14.652a29.046 29.046 0 0 0-.843-.207c.402-8.188 7.594-14.616 16.441-14.445Zm-22.384 149.672c-24.443 0-44.391-21.908-44.391-39.83 0-12.783 7.827-13.853 12.405-32.479 6.91-28.117 22.398-54.678 34.879-50.427 10.609 3.603 22.868 24.91 29.151 50.662 4.432 18.169 12.346 19.442 12.346 32.244 0 17.935-19.961 39.83-44.39 39.83Z"/>
    <path fill="#6BA840" d="M119.309 188.564c-4.022-2.909-7.384-6.893-9.225-10.928-1.465-3.213-5.421-4.7-8.836-3.32-3.415 1.379-4.995 5.101-3.53 8.314 2.761 6.049 7.516 11.721 13.388 15.97 2.947 2.132 7.171 1.612 9.435-1.159 2.265-2.77 1.714-6.745-1.232-8.877Z"/>
  </g>
  <defs>
    <clipPath id="a">
      <path fill="#fff" d="M40 50h186v175H40z"/>
    </clipPath>
  </defs>
</svg>
