<svg xmlns="http://www.w3.org/2000/svg" width="356" height="452" fill="none" viewBox="0 0 356 452">
  <path fill="#000" d="m.226 451.845.248-20.651c.307-49.804 12.723-266.988 63.96-341.111 24.993-39.186 62.083-68.697 103.109-82.039 41.025-13.342 82.626-9.423 115.651 10.894a119.233 119.233 0 0 1 10.56 7.3c33.024 20.317 54.768 55.37 60.446 97.445 5.679 42.075-5.173 87.728-30.167 126.914a210.287 210.287 0 0 1-8.854 12.809C271.636 326.399 131.606 393.578 30.022 438.62L.226 451.845ZM274.353 54.304c-12.964-10.32-28.326-17.192-45.08-20.163-16.754-2.971-34.522-1.976-52.141 2.92-17.619 4.897-34.692 13.584-50.102 25.494-15.409 11.91-28.808 26.774-39.318 43.619-36.047 52.148-53.335 217.125-56.374 298.988 63.307-28.172 220.23-99.701 260.468-157.912 12.044-15.785 21.214-33.571 26.91-52.195 5.697-18.624 7.791-37.666 6.145-55.878-1.645-18.213-6.992-35.186-15.692-49.81-8.7-14.622-20.58-26.582-34.816-35.063Z"/>
  <path fill="#000" d="M15.343 269.892v153l215-97.5 85.5-99.5 23.5-111.5-83.5-83h-115l-87.5 117-38 121.5Z"/>
</svg>
