<svg xmlns="http://www.w3.org/2000/svg" width="278" height="394" fill="none" viewBox="0 0 278 394">
  <path fill="#fff" d="M17 178.382 146 373.5l77.489-107.818 45.586-97.485-19.959-85.117L194.5 33l-63.167-12-67.762 18.43-34.99 43.65L17 137.157v41.225Z"/>
  <path fill="#EE0E0E" d="m139.434 393.603-10.514-13.036C103.347 349.255.132 207.915.132 139.339c-1.569-35.349 10.941-69.874 34.779-95.98C58.748 17.253 91.959 1.703 127.238.132c3.89-.176 7.789-.176 11.696 0a132.997 132.997 0 0 1 95.792 34.847c26.055 23.884 41.574 57.16 43.143 92.509.175 3.95.175 7.9 0 11.851 0 58.279-70.151 160.933-122.954 233.091l-15.481 21.173Zm-.5-367.505a106.966 106.966 0 0 0-44.235 6.885 107.138 107.138 0 0 0-37.568 24.392 107.391 107.391 0 0 0-24.344 37.642 107.56 107.56 0 0 0-6.871 44.322c0 48.245 72.516 159.011 112.65 211.575 32.855-45.033 113.413-157.72 113.413-211.575a107.552 107.552 0 0 0-6.871-44.322 107.4 107.4 0 0 0-24.344-37.642 107.145 107.145 0 0 0-37.568-24.392 107.09 107.09 0 0 0-44.262-6.885Z"/>
  <path fill="#FB2828" stroke="#FB2828" stroke-width=".391" d="M109.412 141.03c-9.532 0 0 13.809 0 13.809s9.533-13.809 0-13.809Zm59.175 0c-9.533 0 0 13.809 0 13.809s9.533-13.809 0-13.809Zm-29.587 0c-9.533 0 0 13.809 0 13.809s9.532-13.809 0-13.809Zm0 60.455c-9.533 0 0 13.809 0 13.809s9.532-13.809 0-13.809Zm14.793-30.227c-9.532 0 0 13.808 0 13.808s9.533-13.808 0-13.808Zm-29.587 0c-9.533 0 0 13.808 0 13.808s9.533-13.808 0-13.808Z"/>
  <path fill="#EE0E0E" stroke="#EE0E0E" stroke-width=".391" d="M195.18 124.794c-7.47-7.147-18.446-8.724-29.385-8.626 3.365-2.762 6.279-6.174 8.69-10.219 5.827-9.774 7.404-20.765 8.251-26.67.094-.654.178-1.24.257-1.746L184.338 69l-8.406 2.35c-.5.14-1.077.293-1.723.465-5.827 1.545-16.674 4.421-25.784 11.32-3.886 2.941-7.031 6.324-9.425 10.093-2.395-3.768-5.54-7.151-9.424-10.093-9.111-6.9-19.958-9.776-25.785-11.32a131.74 131.74 0 0 1-1.722-.464L93.662 69l1.344 8.532c.08.507.164 1.093.257 1.747.848 5.905 2.425 16.896 8.252 26.67 2.411 4.045 5.325 7.457 8.689 10.219-10.939-.098-21.915 1.479-29.384 8.626-6.208 5.94-9.062 14.904-8.482 26.645C76.384 192.856 105.075 241 139 241c33.925 0 62.617-48.145 64.662-89.561.58-11.741-2.274-20.706-8.482-26.645Zm-39.941-32.865c4.802-3.636 10.503-5.966 15.294-7.52-.982 4.889-2.632 10.764-5.703 15.917-4.584 7.688-11.225 11.987-20.215 13.052 0-.415-.007-.827-.018-1.237.289-8.38 3.801-15.031 10.642-20.212Zm-47.773-7.52c4.791 1.553 10.492 3.884 15.294 7.52 6.842 5.18 10.354 11.832 10.642 20.212-.011.41-.018.822-.018 1.237-8.99-1.065-15.632-5.365-20.214-13.052-3.072-5.153-4.722-11.028-5.704-15.917Zm85.002 66.49c-.901 18.246-7.667 38.478-18.099 54.118-10.556 15.828-23.448 24.905-35.37 24.905-11.922 0-24.814-9.077-35.37-24.905-10.432-15.64-17.198-35.872-18.1-54.118-.421-8.534 1.242-14.47 5.084-18.146 7.305-6.989 22.334-5.777 35.597-4.707 4.578.369 8.902.718 12.789.718 3.886 0 8.21-.349 12.788-.718 13.263-1.07 28.293-2.282 35.598 4.707 3.843 3.676 5.505 9.611 5.083 18.146Z"/>
  <path fill="#FB2828" stroke="#FB2828" stroke-width=".391" d="M168.587 141.03c-9.533 0 0 13.809 0 13.809s9.532-13.809 0-13.809Zm-59.175 0c-9.532 0 0 13.809 0 13.809s9.533-13.809 0-13.809Zm29.588 0c-9.533 0 0 13.809 0 13.809s9.532-13.809 0-13.809Zm0 60.455c-9.533 0 0 13.809 0 13.809s9.532-13.809 0-13.809Zm-14.794-30.227c-9.533 0 0 13.808 0 13.808s9.533-13.808 0-13.808Zm29.587 0c-9.533 0 0 13.808 0 13.808s9.533-13.808 0-13.808Z"/>
</svg>
