<svg xmlns="http://www.w3.org/2000/svg" width="237" height="183" fill="none" viewBox="0 0 237 183">
  <path fill="#182450" d="M200.6 15.38C185.276 8.277 168.956 3.044 151.763.054c-2.118 3.738-4.609 8.846-6.229 12.957-18.189-2.74-36.254-2.74-54.069 0-1.744-4.11-4.235-9.218-6.354-12.956C67.92 3.045 51.598 8.278 36.275 15.38 5.378 61.973-2.97 107.447 1.142 152.172c20.556 15.324 40.365 24.543 59.925 30.648 4.859-6.603 9.094-13.705 12.832-21.055-7.101-2.616-13.829-5.98-20.183-9.842 1.745-1.246 3.364-2.616 4.984-3.862 38.994 18.189 81.228 18.189 119.724 0a75.938 75.938 0 0 0 4.984 3.862c-6.354 3.862-13.206 7.101-20.183 9.842 3.738 7.35 7.973 14.452 12.832 21.055 19.56-6.105 39.493-15.324 59.925-30.648 4.858-51.951-8.347-96.926-35.133-136.793h-.249ZM79.131 124.763c-11.71 0-21.303-10.839-21.303-24.169s9.343-24.17 21.303-24.17 21.429 10.84 21.304 24.17c0 13.205-9.344 24.169-21.304 24.169Zm78.612 0c-11.71 0-21.303-10.839-21.303-24.169s9.343-24.17 21.303-24.17 21.429 10.84 21.304 24.17c0 13.205-9.344 24.169-21.304 24.169Z"/>
</svg>
