<svg xmlns="http://www.w3.org/2000/svg" width="288" height="288" fill="none" viewBox="0 0 288 288">
  <path fill="#182450" fill-rule="evenodd" d="M248.666.083c21.678 0 39.25 17.573 39.25 39.25v209.334c0 21.677-17.572 39.25-39.25 39.25H39.333c-21.677 0-39.25-17.573-39.25-39.25V39.333c0-21.677 17.573-39.25 39.25-39.25h209.333Zm0 26.167c7.226 0 13.084 5.858 13.084 13.083v209.334c0 7.226-5.858 13.083-13.084 13.083H183.25v-91.585h27.163a13.083 13.083 0 0 0 12.412-8.946l5.796-17.388c2.119-6.354-2.611-12.916-9.308-12.916H183.25v-26.166c0-6.542 6.541-13.083 13.083-13.083H222.5c7.226 0 13.083-5.858 13.083-13.084v-8.975c0-4.226-2.699-8.015-6.786-9.093-17.15-4.526-32.464-4.526-32.464-4.526-32.708 0-52.333 22.594-52.333 42.22v32.707h-26.167c-7.226 0-13.083 5.858-13.083 13.084v13.083c0 7.226 5.857 13.083 13.083 13.083H144v91.585H39.333c-7.226 0-13.083-5.857-13.083-13.083V39.333c0-7.225 5.857-13.083 13.083-13.083h209.333Z" clip-rule="evenodd"/>
</svg>
