<svg xmlns="http://www.w3.org/2000/svg" width="237" height="237" fill="none" viewBox="0 0 237 237">
  <path fill="#182450" d="M221.684 85.484a51.446 51.446 0 0 1-13.352 4.806 77.466 77.466 0 0 1 3.603 22.937 82.745 82.745 0 0 1-7.086 32.364c-4.511 10.166-11.024 19.254-19.123 26.689a7.275 7.275 0 0 0-1.666 2.415 7.473 7.473 0 0 0-.595 2.9v38.884l-30.942-20.316a6.935 6.935 0 0 0-2.847-1.063 6.856 6.856 0 0 0-3.017.262 109.934 109.934 0 0 1-33.627 5.243c-54.538 0-98.903-39.175-98.903-87.378 0-48.204 44.365-87.378 98.903-87.378a109.918 109.918 0 0 1 32.144 4.806 55.547 55.547 0 0 1 3.179-14.126 123.65 123.65 0 0 0-35.323-5.243C50.723 11.286 0 57.014 0 113.227s50.723 101.941 113.032 101.941a123.609 123.609 0 0 0 34.475-4.952l39.067 25.631a6.914 6.914 0 0 0 3.563 1.149 6.891 6.891 0 0 0 3.634-.885 7.163 7.163 0 0 0 2.689-2.67 7.45 7.45 0 0 0 .993-3.71v-49.005c8.839-8.74 15.893-19.214 20.746-30.806a97.15 97.15 0 0 0 7.512-36.693 92.248 92.248 0 0 0-4.027-27.743Z"/>
  <path fill="#182450" d="M63.717 105.333c-1.933 0-3.787.595-5.154 1.653-1.366 1.058-2.134 2.494-2.134 3.99 0 1.497.768 2.932 2.134 3.99 1.367 1.058 3.221 1.653 5.154 1.653H165.76c1.933 0 3.787-.595 5.154-1.653s2.135-2.493 2.135-3.99c0-1.496-.768-2.932-2.135-3.99-1.367-1.058-3.221-1.653-5.154-1.653H63.717Zm22.807 33.858a7.523 7.523 0 1 0 0 15.047h56.428a7.522 7.522 0 0 0 5.32-12.844 7.522 7.522 0 0 0-5.32-2.203H86.524ZM60.19 75.238c0 1.995.753 3.909 2.093 5.32 1.34 1.41 3.157 2.203 5.052 2.203h96.021a6.872 6.872 0 0 0 3.391-.975 7.33 7.33 0 0 0 2.539-2.56 55.247 55.247 0 0 1-11.074-11.512H67.335c-1.895 0-3.712.793-5.052 2.204-1.34 1.41-2.093 3.324-2.093 5.32Zm141.072-3.762c19.738 0 35.738-16 35.738-35.738S221 0 201.262 0s-35.738 16-35.738 35.738 16 35.738 35.738 35.738Z"/>
</svg>
