<svg version="1.2" xmlns="http://www.w3.org/2000/svg" viewBox="0 0 448 448" width="448" height="448">
  <title>instagram-svg</title>
  <style>
    .s0 { fill: #e5ffd2 }
    .s1 { fill: #000000 }
  </style>
  <path id="Vorm 3" class="s0" d="m224 448c-123.9 0-224-100.1-224-224 0-123.9 100.1-224 224-224 123.9 0 224 100.1 224 224 0 123.9-100.1 224-224 224z"/>
  <path id="Layer" fill-rule="evenodd" class="s1" d="m387 291.6c-1.3 26.3-7.3 49.5-26.5 68.7-19.2 19.3-42.4 25.3-68.7 26.5-27.1 1.6-108.3 1.6-135.4 0-26.3-1.3-49.5-7.3-68.7-26.5-19.3-19.2-25.3-42.4-26.5-68.7-1.6-27.1-1.6-108.3 0-135.4 1.3-26.3 7.2-49.6 26.5-68.7 19.2-19.2 42.5-25.2 68.7-26.5 27.1-1.5 108.3-1.5 135.4 0 26.3 1.3 49.5 7.3 68.7 26.5 19.3 19.2 25.3 42.5 26.5 68.8 1.6 27.1 1.6 108.2 0 135.3zm-28.4-67.7c0-23.8 2-75.1-6.6-96.7-5.8-14.4-16.8-25.5-31.2-31.2-21.5-8.5-72.8-6.6-96.7-6.6-23.8 0-75.1-1.9-96.7 6.6-14.4 5.8-25.5 16.9-31.2 31.2-8.5 21.5-6.6 72.9-6.6 96.7 0 23.9-1.9 75.1 6.6 96.7 5.8 14.5 16.9 25.5 31.2 31.2 21.5 8.5 72.9 6.6 96.7 6.6 23.9 0 75.1 2 96.7-6.6 14.5-5.8 25.5-16.8 31.2-31.2 8.6-21.5 6.6-72.8 6.6-96.7zm-46.9-67.9c-10.9 0-19.6-8.8-19.6-19.6 0-10.9 8.7-19.7 19.6-19.7 10.8 0 19.6 8.8 19.6 19.7 0 10.8-8.8 19.6-19.6 19.6zm-87.6 152c-46.5 0-84.1-37.6-84.1-84.1 0-46.5 37.6-84.1 84.1-84.1 46.5 0 84.1 37.6 84.1 84.1 0 46.5-37.6 84.1-84.1 84.1zm54.7-84.1c0-30.2-24.4-54.7-54.7-54.7-30.2 0-54.7 24.5-54.7 54.7 0 30.3 24.5 54.7 54.7 54.7 30.3 0 54.7-24.4 54.7-54.7z"/>
</svg>