<svg xmlns="http://www.w3.org/2000/svg" width="282" height="282" fill="none" viewBox="0 0 282 282">
  <path fill="#182450" fill-rule="evenodd" d="M82.762 1.73C59.81 2.766 39.914 8.378 23.85 24.375 7.73 40.454 2.187 60.427 1.15 83.142.503 97.32-3.27 204.426 7.672 232.515c7.38 18.949 21.915 33.519 41.038 40.923 8.923 3.471 19.11 5.82 34.051 6.506 124.938 5.654 171.251 2.576 190.78-47.429 3.466-8.901 5.851-19.079 6.51-33.983 5.711-125.258-.925-152.409-22.7-174.157C240.081 7.146 219.765-4.581 82.762 1.73Zm1.15 253.022c-13.679-.615-21.1-2.895-26.053-4.812-12.459-4.842-21.817-14.162-26.63-26.548-8.333-21.342-5.57-122.711-4.826-139.113.73-16.067 3.985-30.75 15.321-42.087 14.03-13.995 32.157-20.854 155.579-15.284 16.107.728 30.824 3.976 42.189 15.284 14.03 13.995 20.989 32.262 15.32 155.21-.617 13.646-2.904 21.05-4.826 25.99-12.697 32.539-41.908 37.056-166.074 31.36ZM198.664 66.124c0 9.265 7.534 16.799 16.836 16.799s16.85-7.534 16.85-16.8c0-9.264-7.548-16.791-16.85-16.791-9.302 0-16.836 7.527-16.836 16.792Zm-130.1 74.706c0 39.691 32.255 71.87 72.044 71.87 39.789 0 72.044-32.179 72.044-71.87 0-39.69-32.255-71.85-72.044-71.85-39.789 0-72.044 32.16-72.044 71.85Zm25.282 0c0-25.751 20.933-46.644 46.762-46.644s46.762 20.893 46.762 46.644c0 25.766-20.933 46.665-46.762 46.665s-46.762-20.899-46.762-46.665Z" clip-rule="evenodd"/>
</svg>
