<?xml version="1.0" encoding="UTF-8"?>
<svg id="Layer_2" data-name="Layer 2" xmlns="http://www.w3.org/2000/svg" viewBox="0 0 4114.29 1128.63">
  <defs>
    <style>
      .cls-1 {
        fill: #9bce77;
      }

      .cls-2 {
        fill: #182450;
      }
    </style>
  </defs>
  <g id="Layer_1-2" data-name="Layer 1">
    <g>
      <path class="cls-2" d="m98.96,824.64c-30.37,0-52.01-7.15-64.92-21.46C11.34,778.4,0,705.98,0,585.89c0-53.4,2.1-106.81,6.28-160.22C20.59,241.73,48.51,121.65,90.05,65.45c21.64-28.97,53.93-47.13,96.87-54.46C229.85,3.66,282.38,0,344.52,0c28.27,0,54.98,2.18,80.11,6.55,25.13,4.37,45.03,11.52,59.69,21.46,14.66,9.96,21.99,23.13,21.99,39.53,0,38.75-42.59,61.79-127.75,69.12-39.1,3.14-85.34,4.7-138.75,4.7,13.96,40.5,21.29,84.3,21.99,131.42v40.84c0,32.82-1.39,64.58-4.18,95.3,36.65-5.93,67.54-8.91,92.67-8.91,17.45,0,31.33,2.36,41.63,7.07,10.29,4.7,17.27,10.39,20.94,17.02,3.66,6.63,5.5,13.43,5.5,20.41,0,21.99-12.04,38.75-36.12,50.27-35.26,16.41-80.29,25.13-135.09,26.18-5.93,51.31-12.75,99.83-20.42,145.56-3.49,20.6-9.77,45.38-18.85,74.35-17.1,55.85-53.4,83.77-108.9,83.77Z"/>
      <path class="cls-2" d="m545.57,823.08c-37,0-61.08-13.1-72.25-39.27-11.18-26.18-16.75-74.35-16.75-144.51,0-39.44,2.1-87.96,6.29-145.56,10.47-140.67,31.76-231.07,63.87-271.21,16.75-20.95,43.11-31.42,79.06-31.42,27.92,0,49.39,7.33,64.4,21.99,12.57,11.87,20.59,27.75,24.09,47.64,2.79,16.76,4.18,38.05,4.18,63.88,21.64-39.44,46.34-70.5,74.09-93.2,27.75-22.68,56.28-34.03,85.6-34.03,25.82,0,45.55,6.64,59.16,19.9,22.33,22.34,33.51,56.72,33.51,103.14,0,25.84-3.32,54.28-9.95,85.35-9.77,47.12-18.85,76.1-27.22,86.91,13.61,0,29.23-5.23,46.86-15.71,17.62-10.47,32.8-23.03,45.55-37.69,12.74-14.67,22.78-29.14,30.11-43.46,4.19-8.02,7.94-14.04,11.26-18.06,3.31-4.02,6.29-6.55,8.9-7.6,2.62-1.05,5.32-1.56,8.12-1.56,6.29,0,9.42,4.18,9.42,12.56,0,28.63-10.99,58.3-32.98,89.01-19.56,27.23-44.86,50.44-75.92,69.64-31.07,19.2-61.08,28.79-90.05,28.79-19.9,0-35.95-5.77-48.17-17.27-23.75-21.64-35.6-59.34-35.6-113.1,0-43.98,7.85-85.34,23.56-124.09-15.37,0-29.84,9.08-43.46,27.23-24.78,32.81-47.82,86.22-69.11,160.22-15.7,54.8-27.4,107.52-35.08,158.11-9.42,64.23-21.99,106.47-37.7,126.72-19.2,24.42-47.12,36.65-83.77,36.65Z"/>
      <path class="cls-2" d="m1428.85,833.02c-44.34,0-76.8-23.92-97.39-71.73-17.45-40.49-26.53-95.11-27.22-163.88-50.62,141.03-113.8,211.52-189.54,211.52-46.42,0-77.14-32.98-92.15-98.95-7.33-31.42-10.99-67.88-10.99-109.43,0-80.28,4.01-147.65,12.04-202.09,5.93-40.49,16.32-76.27,31.16-107.34,14.83-31.06,41.62-46.59,80.36-46.59,27.92,0,47.65,6.8,59.17,20.41,11.52,13.62,17.27,40.15,17.27,79.59,0,131.25-14.48,246.43-43.45,345.56,19.54,0,46.42-39.09,80.63-117.28,26.52-60.74,54.62-136.14,84.29-226.19,6.98-21.64,14.83-42.05,23.56-61.25,18.85-42.94,48.87-64.58,90.06-64.93,35.25,0,58.46,9.08,69.63,27.23,16.41,27.58,24.62,79.59,24.62,156.03,0,95.65-16.59,195.65-49.74,300.02,32.11-27.57,66.67-70.6,103.67-129.06,37-58.46,63.53-107.41,79.59-146.86,7.67-18.15,14.04-31.42,19.11-39.8,5.05-8.37,9.43-13.69,13.1-15.97,3.66-2.26,7.24-3.4,10.73-3.4,6.98,0,10.48,5.05,10.48,15.17,0,12.23-3.5,29.51-10.48,51.85-15.36,48.87-34.38,99.13-57.06,150.78-30.03,68.07-62.66,123.74-97.91,167.02-42.94,53.07-87.44,79.59-133.51,79.59Z"/>
      <path class="cls-2" d="m1779.13,833.02c-47.83,0-81.68-27.23-101.58-81.68-15.36-41.19-23.04-95.3-23.04-162.32,0-36.3,2.63-75.21,7.85-116.75,13.96-111.7,34.37-186.22,61.26-223.57,13.61-18.5,38.56-27.75,74.87-27.75,34.2,0,56.71,8.91,67.54,26.7,16.4,27.58,24.6,78.71,24.6,153.41,0,98.09-16.41,198.95-49.22,302.63,32.11-27.57,66.57-70.6,103.41-129.06,36.82-58.46,63.43-107.41,79.85-146.86,7.33-18.15,13.53-31.42,18.59-39.8,5.05-8.37,9.42-13.69,13.08-15.97,3.66-2.26,7.24-3.4,10.74-3.4,6.98,0,10.47,5.05,10.47,15.17,0,11.87-3.66,29.16-10.99,51.85-45.03,140.32-96.52,246.26-154.46,317.8-42.93,53.07-87.27,79.59-132.99,79.59Zm24.08-652.38c-13.27,0-26.53-2.79-39.79-8.38-28.63-11.52-42.93-32.28-42.93-62.3s11.51-54.8,34.55-72.26c19.9-14.66,41.54-21.99,64.93-21.99,12.57,0,25.65,2.61,39.26,7.85,28.97,11.52,43.46,33.68,43.46,66.49,0,21.3-5.94,39.45-17.81,54.46-18.84,24.08-46.07,36.12-81.68,36.12Z"/>
      <path class="cls-2" d="m2154.01,833.02c-89.71,0-134.56-92.15-134.56-276.45,0-69.46,7.15-163.36,21.46-281.68l-19.89-1.05c-32.11-2.1-48.17-13.96-48.17-35.61,0-24.43,26.53-39.44,79.58-45.02,14.31-65.63,30.8-107.87,49.49-126.71,18.66-18.85,44.76-28.28,78.27-28.28s57.07,12.75,71.73,38.22c14.66,25.48,21.99,64.75,21.99,117.8,65.62,6.29,98.44,20.95,98.44,43.98,0,21.65-19.56,33.35-58.65,35.08l-40.84,1.58c-6.63,182.55-25.48,325.5-56.55,428.81,49.57-27.57,92.77-70.6,129.59-129.06,36.82-58.46,63.43-107.41,79.85-146.86,7.33-18.15,13.52-31.42,18.58-39.8,5.07-8.37,9.43-13.69,13.1-15.97,3.66-2.26,7.24-3.4,10.74-3.4,6.98,0,10.47,5.05,10.47,15.17,0,11.87-3.66,29.16-10.99,51.85-41.54,129.85-95.29,230.72-161.27,302.62-57.94,63.19-108.73,94.77-152.36,94.77Z"/>
      <g>
        <path class="cls-1" d="m2971.26,939.97c-7.46.17-15.72-.26-24.56-1.69-1.83-.29-3.61-.62-5.34-.97-7.01-1.42-14.01,2.41-16.43,9.14-10,27.81-18.83,51.42-22.05,70.45-13.46,79.62-12.16,87.74-9.74,102.12,1.75,10.34,19.88,11.55,26.03,7.35,7.9-5.39,2.05-22.17-.09-44.35-.64-6.6-5.1-58.55,18.28-97.9,5.29-8.91,15.76-23.49,36.12-36.87,3.35-2.2,1.78-7.36-2.22-7.27Z"/>
        <path class="cls-1" d="m3105.9,990.89c-49.35-13.73-99.41.1-125.53,9.91-2.35.88-4.32,2.25-5.89,3.93,14.33,5.95,28.82,11.56,43.46,16.8l110.45,32.02c-53.56-8.49-106.5-21.77-158.06-39.53-.34,3.77.67,7.71,3.29,11.03,17.3,21.89,53.01,59.6,102.36,73.33,49.35,13.73,99.41-.1,125.53-9.91,9.91-3.72,13.31-15.94,6.75-24.25-17.3-21.89-53.01-59.6-102.36-73.33Z"/>
        <path class="cls-1" d="m3429.98,344.71c-8.73,0-16.94,6.45-24.6,19.36-4.89,8.38-10.99,21.65-18.32,39.8-19.55,49.11-47.59,80.82-84.12,95.18,6.87-36.89,6.64-77.09-8.63-116.06-36.08-92.09-136.06-126.55-142.09-128.53-40.34-13.24-88.26-14.69-130.65-15.96-32.49-.98-48.73-1.47-69.42,1.33-23.57,3.18-109.74,14.83-163.66,86.4-50.92,67.6-41.5,146.75-39.63,162.5,5.31,44.65,18.27,39.17,61.82,157.89,22.43,61.14,33.65,91.72,41.76,118.78,16.91,56.39,19.69,79.37,42.96,103.47,4.66,4.83,33.21,33.58,77.84,38.8,77.43,9.07,134.19-60.74,146.57-77.14,20.72-27.44,15.21-35.19,42.05-82.41,30.29-53.28,54.84-74.24,76.37-102.83,1.95-2.59,25.89-41.19,25.89-41.19,28.86-5.55,59.84-27.76,84.3-47.44,31.25-25.13,63.05-91.88,80.5-144.94,7.33-21.64,10.99-39.27,10.99-52.88,0-9.43-3.31-14.13-9.94-14.13Zm-286.42,145.64c-4.89,62.73-59.7,109.61-122.43,104.72s-109.61-59.7-104.72-122.43c4.89-62.72,59.7-109.61,122.43-104.72,62.72,4.89,109.61,59.7,104.72,122.43Z"/>
      </g>
      <path class="cls-2" d="m4103.82,368.61c-3.49,0-7.06,1.13-10.73,3.4-3.66,2.28-8.04,7.6-13.1,15.97-5.07,8.38-11.25,21.65-18.58,39.8-16.41,39.45-43.03,88.4-79.85,146.86-36.84,58.46-71.3,101.5-103.41,129.06,9.77-32.81,18.14-70.68,25.13-113.62,12.91-79.23,19.37-145.37,19.37-198.44,0-129.5-39.27-194.25-117.81-194.25-34.21,0-69.46,15.1-105.76,45.3-36.31,30.19-67.37,70.94-93.2,122.25.69-8.72,1.04-17.27,1.04-25.65,0-15-1.04-29.84-3.14-44.5-6.98-49.91-36.82-74.87-89.53-74.87-36.3,0-62.83,9.96-79.58,29.84-13.43,16-24.9,41.45-34.42,76.33,10.79-8.18,21.39-10.44,29.71-10.44,18.79,0,39.01,13.52,39.01,43.21,0,16.96-4.1,37.31-12.52,62.2-17.51,53.24-51.18,126.09-88.58,157.17-1.06,23.58-1.79,46.97-1.79,69.98,0,79.93,10.12,130.37,30.37,151.31,14.66,15.71,34.9,23.56,60.74,23.56,36.3,0,63.87-11.71,82.72-35.08,13.96-17.1,25.3-52.36,34.03-105.77,7.33-44.67,22.34-100,45.03-165.97,27.23-80.28,56.2-138.75,86.92-175.4,16.75-20.24,34.03-30.37,51.83-30.37-13.61,29.32-27.31,76.53-41.1,141.63-13.8,65.1-20.68,125.57-20.68,181.41,0,133,39.96,199.49,119.89,199.49,45.73,0,90.06-26.52,133-79.59,57.94-71.55,109.42-177.49,154.45-317.8,7.33-22.69,10.99-39.98,10.99-51.85,0-10.12-3.49-15.17-10.47-15.17Z"/>
      <g>
        <path class="cls-2" d="m2514.24,172.26c13.26,5.59,26.52,8.38,39.78,8.38,35.62,0,62.84-12.04,81.68-36.12,11.88-15.01,17.81-33.16,17.81-54.46,0-32.81-14.5-54.97-43.46-66.49-13.61-5.24-26.7-7.86-39.26-7.86-23.39,0-45.03,7.33-64.92,21.99-23.04,17.46-34.57,41.55-34.57,72.26s14.31,50.78,42.95,62.3Z"/>
        <path class="cls-2" d="m2740.18,554.44c-5.68-11.56-10.1-20.7-13.53-31-9.4,16.2-19.65,33.19-30.99,51.2-36.84,58.46-71.31,101.5-103.41,129.06,32.8-103.68,49.21-204.54,49.21-302.63,0-74.7-8.19-125.83-24.6-153.41-10.83-17.8-33.33-26.7-67.55-26.7-36.3,0-61.25,9.26-74.86,27.76-26.89,37.35-47.3,111.87-61.25,223.57-5.24,41.54-7.85,80.45-7.85,116.75,0,67.02,7.67,121.13,23.04,162.32,19.88,54.45,53.75,81.68,101.58,81.68s90.03-26.52,132.99-79.59c33.88-41.84,65.54-95.54,95.01-160.9-7.34-16.85-13.16-28.72-17.76-38.1Z"/>
      </g>
    </g>
  </g>
</svg>