<?xml version="1.0" encoding="UTF-8"?>
<svg id="Layer_2" data-name="Layer 2" xmlns="http://www.w3.org/2000/svg" viewBox="0 0 597.52 952.9">
  <defs>
    <style>
      .cls-1 {
        fill: #9bce77;
        fill-rule: evenodd;
      }
    </style>
  </defs>
  <g id="Layer_1-2" data-name="Layer 1">
    <g>
      <path class="cls-1" d="m229.96,747.83c-7.51-1.56-15.04,2.53-17.66,9.74-10.84,29.79-20.41,55.08-23.94,75.47-14.77,85.34-13.41,94.05-10.87,109.49,1.83,11.1,21.28,12.47,27.89,7.99,8.49-5.75,2.29-23.77.09-47.57-.66-7.08-5.22-62.82,20.01-104.93,5.71-9.54,17-25.13,38.89-39.39,3.6-2.34,1.94-7.89-2.35-7.81-8.01.15-16.86-.35-26.34-1.91-1.96-.32-3.86-.68-5.72-1.07Z"/>
      <path class="cls-1" d="m515.71,885.07c-18.46-23.55-56.61-64.14-109.48-79.08-52.88-14.94-106.62-.3-134.68,10.11-2.53.94-4.64,2.4-6.34,4.19,15.35,6.45,30.86,12.52,46.54,18.2l118.34,34.81c-57.41-9.33-114.14-23.79-169.36-43.06-.38,4.05.69,8.27,3.49,11.84,18.46,23.55,56.61,64.14,109.48,79.08,52.88,14.94,106.62.3,134.68-10.11,10.65-3.95,14.34-17.04,7.34-25.98Z"/>
      <path class="cls-1" d="m583.97,156.18C545.88,57.83,439.41,20.67,432.98,18.53,390.02,4.25,338.93,2.51,293.73.97c-34.64-1.18-51.96-1.77-74.03,1.13-25.14,3.3-117.09,15.35-174.88,91.46C-9.76,165.43-.04,249.87,1.9,266.67c5.48,47.63,19.31,41.84,65.27,168.62,23.67,65.29,35.5,97.94,44.04,126.84,17.8,60.2,20.67,84.71,45.38,110.52,4.95,5.17,35.27,35.94,82.85,41.7,82.53,9.99,143.34-64.21,156.62-81.65,22.2-29.17,16.36-37.47,45.18-87.7,32.52-56.69,58.79-78.94,81.86-109.34,6.57-8.66,110.96-150.15,60.88-279.47Zm-292.18,225.02c-66.87-5.47-116.63-64.12-111.16-130.98,5.47-66.87,64.12-116.63,130.98-111.16,66.87,5.47,116.63,64.12,111.16,130.98-5.47,66.87-64.12,116.63-130.98,111.16Z"/>
    </g>
  </g>
</svg>