<svg xmlns="http://www.w3.org/2000/svg" width="273" height="273" fill="none" viewBox="0 0 273 273">
  <path fill="#182450" fill-rule="evenodd" d="M26.354 136.5c0-60.832 49.314-110.146 110.146-110.146S246.646 75.668 246.646 136.5 197.332 246.646 136.5 246.646c-13.326 0-26.1-2.366-37.923-6.702 7.448-20.045 14.747-40.146 21.747-60.351 7.442 5.304 17.042 8.74 29.134 8.74 25.075 0 51.508-16.525 58.061-49.292 8.228-41.138-24.721-80.291-71.019-80.291-19.474 0-38.63 7.823-52.961 20.246-14.36 12.45-24.789 30.381-24.789 51.025 0 10.037 3.032 21.223 10.256 28.582 4.997 5.005 13.34 5.023 18.344.018 4.965-4.964 5.06-12.954.284-18.033-10.183-12.708 3.234-33.645 12.881-42.01 10.015-8.68 23.253-13.911 35.985-13.911 31.452 0 50.337 25.638 45.606 49.292-3.926 19.624-18.847 28.458-32.648 28.458-10.598 0-16.306-4.475-19.957-10.263 1.993-6.276 3.7-11.976 4.909-16.609 2.493-9.559 3.999-21.072-4.598-28.235-6.39-5.325-13.933-4.144-18.544-1.838-8.572 4.286-13.643 14.31-13.643 24.549 0 5.72.89 14.582 4.105 23.733-8.275 24.964-17.248 49.702-26.403 74.356-29.53-19.757-48.973-53.413-48.973-91.61ZM136.5.437C61.355.438.437 61.355.437 136.5c0 75.145 60.918 136.062 136.063 136.062 75.145 0 136.062-60.917 136.062-136.062C272.562 61.355 211.645.437 136.5.437Z" clip-rule="evenodd"/>
</svg>
