<svg version="1.2" xmlns="http://www.w3.org/2000/svg" viewBox="0 0 512 512" width="512" height="512">
	<title>magnifying-glass-svg</title>
	<style>
		.s0 { fill: #f6fff5 } 
	</style>
	<path id="Layer" fill-rule="evenodd" class="s0" d="m416 208c0 45.9-14.9 88.3-40 122.7l126.6 126.7c12.5 12.5 12.5 32.8 0 45.3-12.5 12.5-32.8 12.5-45.3 0l-126.6-126.7c-34.4 25.2-76.8 40-122.7 40-114.9 0-208-93.1-208-208 0-114.9 93.1-208 208-208 114.9 0 208 93.1 208 208zm-208 144c38.2 0 74.8-15.2 101.8-42.2 27-27 42.2-63.6 42.2-101.8 0-38.2-15.2-74.8-42.2-101.8-27-27-63.6-42.2-101.8-42.2-38.2 0-74.8 15.2-101.8 42.2-27 27-42.2 63.6-42.2 101.8 0 38.2 15.2 74.8 42.2 101.8 27 27 63.6 42.2 101.8 42.2z"/>
</svg>